<svg width="100" height="100" viewBox="0 0 100 100" fill="none" xmlns="http://www.w3.org/2000/svg">
<path d="M68.5821 34.4564L68.5599 34.2422L68.2128 34.2719L68.2349 34.4859L68.5821 34.4564V34.4564ZM70.9159 40.0693L70.9233 40.1875L71.1671 40.1654C71.1597 40.0916 71.1892 39.9734 71.2409 39.8258L71.2187 39.6115C71.1153 39.6189 71.0118 39.774 70.9159 40.0693ZM61.8095 47.1373C61.7948 46.9379 61.1743 46.1625 59.9483 44.7961C59.9263 44.5451 60.3472 44.1684 61.2112 43.6736L63.678 41.5244C64.2319 40.8227 64.5569 39.6854 64.653 38.1049L64.6233 37.743C64.5274 36.65 63.7372 35.7711 62.238 35.099C61.3517 34.5008 59.7563 34.1684 57.452 34.1094C55.5466 34.2719 53.0577 34.9512 49.9927 36.1551C49.1507 36.7607 48.1907 37.3664 47.1124 37.9719L47.1271 38.1566C47.1937 38.1492 47.297 38.1123 47.4151 38.0311C47.5407 38.0162 47.6146 38.0754 47.622 38.1936L47.8065 38.0975L47.8952 38.09L47.9026 38.1713C47.9101 38.2674 47.2452 38.7918 45.9011 39.7297L46.0046 39.9217L45.9159 39.9291L45.6942 39.8479C45.7017 39.9143 45.6058 39.9586 45.421 39.9734L45.4284 40.0547L45.6427 40.3205C45.5763 40.3279 45.4728 40.2984 45.3325 40.2467C45.0222 40.2762 44.7194 40.4387 44.4167 40.7488L44.5423 40.2023C44.9927 38.26 45.3028 36.5391 45.4653 35.0473L45.4433 34.9512C45.1331 34.7518 44.8302 34.4711 44.5495 34.1166C44.5569 33.8877 44.5569 33.7549 44.5495 33.7252L44.5274 33.6439L44.4388 33.6662C43.464 35.1285 41.588 37.6248 38.8036 41.1551C36.6841 43.6662 35.5909 45.0621 35.5245 45.3428C34.6604 46.2363 34.2468 46.7756 34.2911 46.9602C34.0622 47.1078 33.9661 47.2555 34.003 47.418C33.9366 47.4328 33.8923 47.4107 33.8774 47.3441C33.5083 47.9424 32.9616 48.3264 32.2306 48.4963L31.4624 48.6736C31.3591 48.6957 31.3073 48.7695 31.3147 48.8951L31.3368 48.9912L31.6249 48.9246L31.6472 49.0059L30.9972 49.257L29.845 49.5229L29.2394 49.5598C29.1507 49.6484 29.7194 49.5525 29.498 49.6041L28.7446 49.7814C28.2866 49.8848 28.0356 49.8479 27.9913 49.6633L27.9026 49.6854C27.9175 49.7666 27.9247 49.8258 27.9101 49.8773L27.8657 49.6928L27.2601 49.833C27.2157 49.5525 26.396 48.5332 24.8081 46.7756C24.7786 46.4357 25.3397 45.9408 26.4847 45.2984L29.7194 42.4549C30.4433 41.5244 30.8716 40.0324 31.012 37.9793L30.9677 37.4992C30.8421 36.0518 29.7933 34.8848 27.8214 33.9838C26.6544 33.1936 24.5569 32.7725 21.529 32.7061C19.0179 32.9203 15.7386 33.8139 11.7062 35.3723C10.5983 36.1771 9.33545 36.9748 7.91748 37.765L7.93955 38.0162C8.03564 38.0088 8.16104 37.9572 8.31611 37.8686C8.47861 37.8537 8.56728 37.9275 8.58213 38.0754L8.83311 37.935L8.95869 37.9275L8.96611 38.0457C8.97353 38.1639 8.09463 38.8508 6.31475 40.1062L6.45498 40.3279L6.32959 40.3354L6.05615 40.2393C6.06357 40.3131 5.93799 40.3648 5.67959 40.3869L5.69424 40.5199L5.98975 40.8449C5.89385 40.8523 5.76084 40.8227 5.59092 40.7637C5.01494 40.8154 4.45361 41.2289 3.89971 42.0119L4.03994 42.2334C4.52002 41.7902 4.80068 41.5687 4.88193 41.5613L4.91143 41.9232C4.83018 41.9307 4.70459 41.9822 4.53486 42.0709L4.8376 42.5289C5.40949 41.9107 6.0572 41.3672 6.76533 40.9113C7.1124 41 7.29697 41.1107 7.30439 41.2289L7.57021 41.2068C9.47568 39.7961 11.3591 38.777 13.2276 38.1492L13.2497 38.4002C12.9026 38.9172 12.6663 39.1832 12.5407 39.1979C12.5556 39.3752 12.6146 39.5303 12.7253 39.6633C12.755 39.9809 11.9056 42.1227 10.1847 46.0813C6.27783 55.2836 2.99854 62.093 0.33252 66.4949C0.339746 66.5834 0.391504 66.7016 0.487598 66.8494C1.14482 66.6943 1.5585 66.5318 1.73564 66.3766L1.87607 66.3619L1.89814 66.6131L2.14189 66.5908L2.39307 66.4506C2.40049 66.5244 2.48174 66.5613 2.65146 66.5465L2.67373 66.7977C2.6958 67.0414 2.55557 67.4105 2.26006 67.9203C1.99424 68.223 1.70615 68.8582 1.40342 69.8258L1.41064 69.9439L1.65439 69.9217C2.71807 68.7326 3.52295 67.5656 4.07686 66.4283C7.17881 65.5199 9.54229 64.6264 11.1817 63.7475C12.8288 63.607 14.0843 63.1713 14.9411 62.4549L14.9263 62.3221L14.306 62.5066L14.1655 62.5215L14.1507 62.3885C15.362 62.2039 16.1966 61.9379 16.6618 61.5687C19.0179 59.7518 20.7978 58.4668 22.0017 57.7061C24.4757 55.8893 26.0858 54.1166 26.8169 52.3959C26.9552 52.3658 27.0931 52.3337 27.2306 52.2998C27.5776 52.2852 27.7696 52.2777 27.8214 52.2629C27.8065 52.1965 27.8362 52.1596 27.9026 52.1447C28.4565 52.0857 28.1907 52.1816 28.5452 52.1004L29.4757 51.8863C29.4167 51.901 29.3944 51.9307 29.4093 51.9896L29.5495 51.901C29.52 51.901 29.4979 51.8938 29.4757 51.8863L29.6308 51.8494L29.5569 51.8937C29.6604 51.9084 29.7712 51.901 29.8968 51.8715L29.9632 52.1447L25.7313 58.873L24.7933 60.0473L24.3354 61.5834L24.4241 61.5613L24.8819 61.3693L24.7343 61.9676L24.7786 62.1447L24.904 62.2998C24.845 62.3147 24.8229 62.3516 24.8376 62.418L24.8599 62.5141L25.0519 62.4697C25.3325 62.226 25.4507 62.0045 25.4063 61.8051C25.7091 61.8566 25.9085 61.8789 26.012 61.8494L26.0341 61.9453C25.8495 61.9897 25.7534 62.1373 25.7386 62.3885L25.7608 62.4846L25.8642 62.4623C27.4005 60.7857 31.1671 55.0473 34.1878 51.1551C34.0917 50.7342 35.6647 50.1506 38.9144 49.3973L39.0179 49.3752C39.136 49.8848 38.8849 51.1182 38.2646 53.0754C37.8657 54.257 37.6737 54.907 37.7032 55.0104C37.1862 56.5834 36.9425 57.4328 36.972 57.5658L35.8198 61.3397C35.0739 63.2748 34.5054 65.3059 34.1065 67.4477C34.173 67.4328 34.2763 67.4402 34.4241 67.4771L34.5864 67.3367C34.6013 67.4033 34.6456 67.4254 34.712 67.4105L34.6456 67.1373L35.1478 67.1227C35.2954 67.0857 35.421 66.901 35.5245 66.5613C35.5022 66.0518 35.6058 65.7785 35.8347 65.7193C36.1448 64.5082 36.3368 63.9025 36.4034 63.8803C36.6913 62.6766 36.9056 61.9896 37.0458 61.8197C37.4817 60.2541 37.7991 59.449 38.006 59.3973L38.0503 59.5895L37.7327 60.4092C37.1788 62.8686 36.6175 64.8109 36.0489 66.2363L36.2114 66.9453L36.3147 66.9232C37.6884 63.9689 39.6677 58.1197 42.2452 49.3752C42.3192 48.607 42.6884 48.0088 43.3458 47.5879L43.198 47.4328L43.1759 47.3516C43.4714 47.2852 43.678 47.167 43.7962 47.0045C43.7815 46.9379 43.523 46.842 43.0208 46.709L44.306 41.1994C44.5864 40.9482 44.7489 40.8154 44.8007 40.8154L44.8229 41.0961C44.7563 41.1033 44.653 41.1402 44.5349 41.2215L44.7786 41.5687C45.2216 41.0887 45.7017 40.675 46.2261 40.3279C46.4919 40.4018 46.6249 40.4904 46.6397 40.5791L46.8317 40.5643C48.294 39.4934 49.7269 38.7252 51.1374 38.26L51.1522 38.4445C50.8938 38.8359 50.7165 39.0354 50.6204 39.0428C50.6353 39.1758 50.6722 39.2939 50.7386 39.3973C50.7608 39.641 50.1257 41.2658 48.8259 44.2791C45.8567 51.2584 43.3679 56.4209 41.3442 59.774C41.3517 59.8404 41.396 59.9291 41.4772 60.0473C41.972 59.9291 42.2896 59.8035 42.4151 59.6854L42.5038 59.6779L42.5187 59.8627L42.7253 59.8479L42.9101 59.7518C42.9173 59.8035 42.9839 59.8258 43.1095 59.8184L43.1241 60.0178C43.139 60.1949 43.0356 60.4756 42.8065 60.8596C42.5925 61.0887 42.3708 61.5688 42.1345 62.2998L42.1419 62.3959L42.3339 62.3811C43.139 61.4801 43.7519 60.5938 44.1729 59.7223C46.5288 59.0281 48.3235 58.3561 49.5644 57.6912C50.8272 57.5805 51.78 57.2555 52.43 56.709L52.4226 56.6131L51.9425 56.7533L51.8392 56.7607L51.8317 56.6646C52.7476 56.5318 53.3901 56.325 53.7372 56.0518C55.5245 54.6779 56.8761 53.6957 57.7919 53.1197C60.6427 51.0443 61.972 49.0502 61.8095 47.1373V47.1373ZM61.3222 47.2629L61.3886 48.0088C61.2999 48.1936 61.204 48.2895 61.1153 48.2969L61.0046 47.0266C61.2112 47.1004 61.3147 47.1742 61.3222 47.2629V47.2629ZM5.39893 41.2512L5.27334 41.2584L5.25127 41.0295L5.76084 40.9852L5.76826 41.1033C5.68701 41.1107 5.56143 41.1551 5.39893 41.2512V41.2512ZM2.91006 66.1477C2.61455 66.0148 2.34873 65.9631 2.11982 65.9852L2.09014 65.6232C2.07549 65.483 2.15674 65.3869 2.33389 65.35C2.49639 65.3354 2.59248 65.4535 2.60713 65.6898C3.03564 65.1654 3.27197 64.8996 3.31631 64.8922L3.58955 65.0029C3.50088 65.7416 3.27197 66.1182 2.91006 66.1477V66.1477ZM29.5054 38.3264C29.3798 38.3412 29.1286 37.9498 28.7667 37.1742L28.7446 36.9453C28.981 36.9232 29.2247 37.3072 29.4831 38.0975L29.5054 38.3264V38.3264ZM29.1507 35.5717L29.0474 35.8154L25.4358 34.3088C27.8435 34.39 29.0843 34.8109 29.1507 35.5717ZM13.8997 48.6662L13.3901 48.7105L13.3679 48.4814L13.8774 48.4373L13.8997 48.6662ZM13.486 40.8006L13.6116 40.7932L13.6411 41.1551C13.5229 41.1625 13.3679 41.3396 13.1759 41.6795L13.1536 41.4283C13.3827 41.1551 13.5009 40.9482 13.486 40.8006V40.8006ZM12.4151 43.3264L12.4595 43.8064L12.3339 43.8139L12.2896 43.3338L12.4151 43.3264V43.3264ZM11.8538 44.2275L12.0976 44.2053C12.0755 44.6041 11.9647 44.8184 11.7653 44.833L11.6397 44.8404C11.7948 44.5746 11.8687 44.3678 11.8538 44.2275V44.2275ZM11.4329 45.483L11.5731 45.4682L11.5806 45.5863L11.3517 45.9705L11.1079 45.9926L11.1005 45.8744C11.3442 45.8523 11.455 45.7268 11.4329 45.483V45.483ZM11.0192 46.6131L10.9454 47.2186L10.8198 47.226L10.7683 46.6277L11.0192 46.6131V46.6131ZM6.87607 58.393C6.71357 59.2201 6.53623 59.641 6.35166 59.6559L6.34424 59.5377C6.2999 59.1314 6.47725 58.7475 6.87607 58.393V58.393ZM6.11533 60.0398L6.12275 60.158C6.1374 60.3205 6.06357 60.4166 5.90107 60.4238L5.89385 60.3057C5.879 60.1654 5.95283 60.0768 6.11533 60.0398ZM5.89385 63.4594L6.27783 63.4225L6.29248 63.5555C6.19658 63.5627 6.071 63.6145 5.91592 63.7031L5.67217 63.7252C5.65732 63.5998 5.73857 63.5037 5.89365 63.4594H5.89385V63.4594ZM16.8243 60.0842C14.6677 61.1477 13.3974 61.8715 13.0208 62.248C10.687 63.0605 9.52744 63.5627 9.54951 63.7621C7.47432 64.582 6.10791 65.1877 5.45068 65.5643C5.29561 65.5791 5.07393 65.5199 4.77861 65.3869C4.7417 64.966 4.93369 64.6264 5.33975 64.3531C5.70166 64.3234 6.04873 64.3752 6.38115 64.5154C6.76533 64.316 7.4374 64.0945 8.39014 63.8582L8.36787 63.607L7.5999 63.6736C7.6958 63.5406 8.43428 63.1936 9.82275 62.6322L10.2069 62.5953L10.2144 62.7135C9.55693 62.7725 9.19502 62.9647 9.11377 63.3117C9.12861 63.4668 9.21728 63.5332 9.37978 63.5186C9.87451 63.2082 10.1183 63.0236 10.1108 62.9719C11.0489 62.7947 13.6411 61.4357 17.8878 58.9025L17.9101 59.1314C17.9175 59.2422 17.5556 59.5523 16.8243 60.0842V60.0842ZM10.3103 62.226C10.9308 62.1742 11.4624 61.9232 11.9056 61.4875C12.0827 61.4727 12.1788 61.5391 12.1862 61.6941C11.8833 61.7238 11.2999 61.9748 10.4507 62.4623L10.3251 62.4697L10.3103 62.226ZM20.8198 54.1535L17.5628 56.7313C15.1403 58.3191 13.8405 59.1166 13.656 59.1314C9.80068 61.2512 7.40049 62.3516 6.46982 62.4328L6.32959 62.4475C6.44775 62.0119 8.16103 58.5037 11.4847 51.901C12.947 51.7754 15.2513 51.0961 18.3901 49.8553L19.1581 49.7887C20.746 49.6484 21.9351 49.9586 22.7181 50.6973L22.7622 51.1771C22.1714 52.876 21.5216 53.8656 20.8198 54.1535V54.1535ZM14.4536 50.5717L14.978 50.5273L14.9853 50.6455L14.461 50.6898L14.4536 50.5717V50.5717ZM21.8169 49.3234L22.2011 49.2865C22.5556 49.4564 22.7401 49.6041 22.755 49.7371L22.7622 49.8553C22.4226 49.8848 22.105 49.7076 21.8169 49.3234V49.3234ZM22.8583 43.393C22.5187 43.799 21.588 44.4934 20.0665 45.4682C19.5644 45.5125 17.6958 46.2363 14.461 47.6543C14.2993 47.5804 14.1211 47.5499 13.944 47.5658L13.9218 47.3367C13.8849 46.8715 14.0917 46.2881 14.5495 45.5791C14.8007 44.2496 15.0739 43.4889 15.3769 43.3043L18.0726 37.2408C18.0429 36.8641 18.619 36.576 19.8007 36.3766L20.1847 36.3396L20.2144 36.6869C21.3737 36.5096 22.0976 36.4063 22.3782 36.384C24.52 36.1994 25.6353 36.6352 25.7239 37.6766L25.9677 37.6543L25.9159 37.0414L26.1817 37.0191C26.8095 37.3664 27.1493 37.7873 27.1937 38.282C27.2231 38.6219 27.0386 39.0428 26.647 39.5451C26.4847 39.5598 26.3886 39.4416 26.3737 39.2053L26.1079 39.2275L26.0489 39.966C24.9632 41.5908 24.1729 42.4254 23.6854 42.4697C23.2423 43.0828 22.969 43.3855 22.8583 43.393ZM24.5126 47.6396C24.2911 47.4918 24.1138 47.4254 23.981 47.4328L23.9513 47.0709L24.195 47.0488L24.7343 47.3664C24.7563 47.5361 24.6825 47.6248 24.5126 47.6396V47.6396ZM26.2261 49.6705C26.4624 49.7666 26.6028 49.8699 26.6323 49.966L26.5142 49.9955L26.5216 50.0029C26.4993 50.0029 26.4698 50.0104 26.4476 50.0178L26.2704 50.158L26.2261 49.6705V49.6705ZM26.3886 50.6898L26.3665 50.5937L26.6767 50.5199L26.6987 50.616L26.3886 50.6898ZM27.1345 51.5244C27.4521 51.4727 27.6071 51.4506 28.198 51.3176L28.2202 51.4137L27.0976 51.6721C27.1124 51.6203 27.1271 51.5687 27.1345 51.5244ZM28.2276 51.9896C27.755 52.034 27.8583 51.9748 27.105 52.1447L27.0827 52.0488L28.0208 51.7459L28.4714 51.6426L28.5155 51.8197C28.3161 51.8641 28.464 51.8641 28.2276 51.9896ZM29.2247 51.7533C29.1138 51.7828 29.0253 51.7312 28.9735 51.6057L29.2616 51.5391C29.387 51.5096 29.4683 51.5613 29.498 51.6869L29.2247 51.7533V51.7533ZM31.9276 48.8434L31.9056 48.7475L32.3708 48.6367L32.4151 48.8139L31.9276 48.8434ZM34.8155 66.5539C34.845 66.4209 34.8524 66.325 34.8376 66.2584L34.9411 66.2363C35.0665 66.2068 35.1403 66.2512 35.17 66.3693L35.1921 66.4652L34.8155 66.5539V66.5539ZM36.8392 49.6041L36.6323 49.5672C36.2999 49.7002 36.0192 49.7961 35.7903 49.8479L35.5983 49.8922C35.4876 49.9217 35.3989 49.8773 35.3546 49.7592L36.7062 49.449L37.1493 49.2422L37.297 49.4121C37.0827 49.4564 36.9276 49.5229 36.8392 49.6041V49.6041ZM37.8804 49.2717L37.8583 49.1758C37.9247 49.1609 38.0134 49.1094 38.1095 49.0133L39.0694 48.7918L39.0917 48.8877C38.5821 49.0133 38.1759 49.1389 37.8804 49.2717ZM38.0282 47.3293C37.9616 47.3441 37.8731 47.4033 37.7622 47.4918C37.7476 47.4254 37.6146 47.4254 37.3634 47.4846C37.3192 47.2998 38.0282 47.0414 39.498 46.7016L39.7046 46.6572L39.7489 46.8346C38.7149 47.1373 38.139 47.3072 38.0282 47.3293V47.3293ZM40.6132 44.5377C40.5097 45.7119 40.0962 46.3768 39.3649 46.5465L39.3429 46.4506L38.6929 46.7016L38.4048 46.7682C38.2571 46.8051 38.1241 46.7977 38.006 46.7607L37.947 46.5021C37.9247 46.4063 38.8628 45.1062 40.7683 42.61L40.9897 42.6471C41.071 42.9867 40.9454 43.6145 40.6132 44.5377ZM45.1847 40.6232L45.0962 40.6307L45.0813 40.4461L45.4653 40.4092L45.4728 40.5051C45.4063 40.5199 45.3103 40.5568 45.1847 40.6232V40.6232ZM43.3015 59.5377C43.0798 59.4342 42.8804 59.39 42.7106 59.4047L42.6884 59.124C42.681 59.0281 42.7401 58.9615 42.8657 58.9246C42.9913 58.91 43.0651 58.9984 43.0798 59.1906C43.3974 58.7844 43.5747 58.5775 43.6116 58.5775L43.811 58.6588C43.7372 59.2201 43.5673 59.5154 43.3015 59.5377V59.5377ZM63.4935 38.415C63.3974 38.4225 63.2128 38.127 62.9247 37.5287L62.9101 37.3441C63.0946 37.3293 63.2866 37.6174 63.4786 38.2082L63.4935 38.415V38.415ZM63.2276 36.3027L63.139 36.4947L60.4063 35.35C62.2306 35.4092 63.1759 35.7268 63.2276 36.3027ZM51.6397 46.2512L51.2556 46.2881L51.2409 46.1033L51.6249 46.0738L51.6397 46.2512V46.2512ZM51.3222 40.2762L51.4255 40.2687L51.4476 40.5494C51.3517 40.5568 51.2335 40.6898 51.0931 40.9482L51.0784 40.7637C51.2483 40.5494 51.3294 40.3869 51.3222 40.2762ZM50.5171 42.1965L50.5466 42.5584L50.4433 42.5658L50.4136 42.2039L50.5171 42.1965ZM50.0813 42.8834L50.2733 42.8686C50.2513 43.1787 50.17 43.3412 50.0296 43.3561L49.9263 43.3633C50.037 43.1566 50.0888 42.9941 50.0813 42.8834ZM49.7712 43.8287L49.8599 43.8213L49.8671 43.9172L49.6974 44.2127L49.5052 44.2275L49.498 44.1314C49.6974 44.1166 49.7858 44.0133 49.7712 43.8287ZM49.461 44.6854L49.3944 45.158L49.3058 45.1654L49.2688 44.7002L49.461 44.6854ZM46.3073 53.6439C46.1817 54.2645 46.0489 54.582 45.9085 54.5967L45.9011 54.5154C45.879 54.2053 46.0118 53.91 46.3073 53.6439ZM45.7239 54.8922L45.7312 54.9734C45.746 55.1063 45.687 55.1803 45.554 55.1875L45.5466 55.0916C45.5392 54.9955 45.5983 54.9291 45.7239 54.8922V54.8922ZM45.5614 57.4918L45.8567 57.4697L45.8642 57.5656C45.7978 57.573 45.6942 57.61 45.5761 57.6766L45.3841 57.6912C45.3767 57.5879 45.4358 57.5215 45.5614 57.4918V57.4918ZM53.8554 54.9291C52.2306 55.7342 51.263 56.2807 50.9603 56.5613C49.1876 57.1816 48.3089 57.5658 48.3235 57.7209C46.7505 58.3486 45.7165 58.799 45.229 59.0871C45.1108 59.0945 44.9409 59.0502 44.7194 58.9469C44.6899 58.6293 44.8376 58.3707 45.1478 58.1787C45.4284 58.1566 45.6942 58.1936 45.938 58.2969C46.2335 58.1492 46.7431 57.9867 47.4669 57.8022L47.4521 57.6174L46.8464 57.6617C46.9204 57.5584 47.489 57.2924 48.5452 56.8641L48.8405 56.842L48.8479 56.9232C48.3458 56.9676 48.0651 57.1152 48.006 57.3811C48.0134 57.4992 48.0872 57.5584 48.2128 57.5436C48.5821 57.2998 48.7593 57.1596 48.7593 57.1152C49.4683 56.9897 51.4329 55.9557 54.6604 54.0207L54.6751 54.2053C54.6825 54.2865 54.4093 54.5229 53.8554 54.9291V54.9291ZM48.9071 56.5539C49.387 56.5096 49.7933 56.325 50.1331 56C50.2585 55.9852 50.3325 56.0443 50.3397 56.1625C50.1183 56.1846 49.6825 56.3693 49.0251 56.7238L48.9218 56.7313L48.9071 56.5539V56.5539ZM56.8981 50.4166L54.4388 52.3959C52.5997 53.5996 51.6028 54.2053 51.4476 54.2201C48.523 55.8301 46.7062 56.6646 45.9897 56.7238L45.8864 56.7313C45.9749 56.3988 47.2823 53.7326 49.8081 48.7252C50.9085 48.6293 52.6515 48.1049 55.0444 47.1596L55.6427 47.1078C56.8464 47.0045 57.7476 47.2408 58.3384 47.8094L58.3679 48.1713C57.9173 49.4416 57.43 50.1875 56.8981 50.4166V50.4166ZM52.0681 47.6986L52.452 47.6617L52.4595 47.7578L52.0755 47.7947L52.0681 47.6986ZM57.6589 46.7459L57.9544 46.7238C58.2276 46.8566 58.3679 46.975 58.3753 47.0709L58.3827 47.1521C58.1241 47.1742 57.8804 47.0414 57.6589 46.7459V46.7459ZM58.4343 42.2482C58.1759 42.5584 57.4743 43.09 56.3296 43.8287C55.9454 43.8656 54.5274 44.4121 52.0755 45.4756C51.9573 45.4312 51.8243 45.4166 51.6839 45.424L51.6692 45.2393C51.6397 44.8848 51.7948 44.4416 52.1345 43.9025C52.3265 42.8834 52.5407 42.3146 52.7622 42.1816L54.8228 37.573C54.8007 37.2998 55.2364 37.0783 56.1228 36.9084L56.4181 36.8863L56.4403 37.167C57.3118 37.0266 57.8583 36.9453 58.0798 36.9232C59.7046 36.7828 60.554 37.1078 60.6204 37.9055L60.8124 37.8906L60.7755 37.4475L60.9677 37.4328C61.4403 37.6912 61.6913 38.0016 61.721 38.3707C61.7431 38.6367 61.6101 38.9615 61.3294 39.3383C61.204 39.3529 61.1302 39.2645 61.1153 39.0725L60.9233 39.0871L60.8642 39.641C60.0444 40.8893 59.4462 41.5318 59.0694 41.5613C58.7372 42.0119 58.5304 42.2408 58.4343 42.2482V42.2482ZM59.2985 45.3205L59.2763 45.0398L59.4683 45.0252L59.8819 45.2762C59.8894 45.3943 59.8302 45.4609 59.7046 45.4756C59.5274 45.3648 59.3944 45.3131 59.2985 45.3205ZM24.9188 63.26L24.7269 63.3043L24.5644 63.4445C24.5938 63.5627 24.6677 63.607 24.7933 63.5775C24.9188 63.548 24.9706 63.4742 24.9411 63.3561L24.9188 63.26V63.26ZM24.1878 61.8051L24.2099 61.901C24.3354 61.8715 24.387 61.7977 24.3575 61.6795L24.3354 61.5834C24.2173 61.6131 24.1655 61.6869 24.1878 61.8051V61.8051ZM29.387 49.4342L29.6087 49.3826L29.5644 49.1906L29.3429 49.2422L29.387 49.4342ZM96.4034 55.0621C94.1581 55.5643 93.8774 55.4756 93.4048 55.5125L93.4196 55.6973L93.6265 55.6824L93.7372 55.675L93.7077 55.6529L93.9513 55.5568C96.1743 55.3131 96.4329 55.4018 96.4106 55.1506L96.4034 55.0621V55.0621ZM84.3132 56.6646L84.328 56.8494H84.3575L84.3429 56.6646H84.3132V56.6646ZM82.9247 51.7977L82.7253 51.7312C82.5628 52.167 82.4815 52.4254 82.489 52.4992L82.4964 52.5805C82.6515 52.573 82.7919 52.3072 82.9247 51.7977ZM96.8612 55.0252L96.8761 55.2098L97.2009 55.2687L97.1862 55.0842L96.8612 55.0252V55.0252ZM81.5806 56.8936L81.0784 56.8346L80.9897 57.0266L80.9972 57.1227L83.9882 56.8715L83.9735 56.6869L81.5806 56.8936ZM80.2216 50.3428L80.2144 50.2467L80.1108 50.2541L79.9263 50.3723L80.0296 50.5494C80.17 50.5348 80.2364 50.4682 80.2216 50.3428V50.3428ZM98.2792 53.6662L98.4196 53.6514C98.5009 53.6439 98.5378 53.5775 98.5304 53.4594L98.4491 53.282C97.9395 53.3264 97.7032 53.3486 97.2896 53.5775L97.2821 53.4816L96.6692 53.5406C96.6544 53.3561 96.6028 53.26 96.5216 53.2674L96.204 53.2969C95.8347 53.3264 95.6573 53.3117 95.4728 53.452C95.4653 53.3855 95.4433 53.3561 95.4064 53.3561L95.0519 53.3855L94.845 53.5037C94.8376 53.4373 94.8155 53.4076 94.7784 53.4076L94.653 53.5186L94.6456 53.4225L94.1507 53.3855L94.0325 53.393L94.0474 53.5775L94.2985 53.6439L94.5349 53.6293C94.6161 53.6811 94.7046 53.6957 94.8081 53.6883L95.0149 53.585L95.0222 53.6662C93.8628 53.9543 93.87 53.9025 93.0724 54.0355C92.9839 53.9764 92.9173 53.9469 92.873 53.9543L92.8583 53.9689C92.7696 53.9615 92.7179 53.9025 92.7106 53.8064L93.1241 53.7549C93.1536 53.7549 93.1759 53.7844 93.4048 53.8287C93.7372 53.6662 93.7519 53.5996 93.9292 53.585L93.9144 53.4002C92.7771 53.6219 93.2349 53.4742 91.8095 53.5996L91.7431 53.607L91.7282 53.4225C93.5599 53.201 92.947 53.3264 93.5747 53.1492C93.5821 53.2156 93.6042 53.2451 93.6411 53.2451C93.7084 53.1764 93.7969 53.1322 93.8923 53.1197L94.0179 53.1123C94.6603 53.0605 94.8745 53.1861 96.1448 52.8316L96.1522 52.9129L96.3591 52.8094L96.5511 52.7947C96.5362 52.61 96.8169 52.5805 96.913 52.573L96.8981 52.3736C94.6677 52.8242 94.0843 52.6986 93.464 52.876L93.4565 52.7947C92.8731 52.898 92.8509 52.8537 92.7032 52.8611C92.6589 52.8686 92.5925 52.9055 92.5185 52.9793C92.5112 52.9129 92.489 52.8832 92.4446 52.8832C92.4226 52.8832 92.4151 52.8906 92.4077 52.8906L90.5171 53.2008C90.5097 53.1492 90.4876 53.1197 90.4433 53.127C89.461 53.3338 89.7269 53.3707 88.4122 53.4889C88.353 53.4963 88.272 53.5258 88.1685 53.5924C88.161 53.5406 88.1315 53.5111 88.0651 53.5184L87.2601 53.585L86.721 53.7178C86.7136 53.6662 86.6841 53.6367 86.6175 53.6439C86.3147 53.7252 86.0489 53.777 85.8347 53.7918H85.8198C85.687 53.8064 85.8864 53.7549 85.7829 53.7105L85.6204 53.8064C85.3841 53.8287 85.5097 53.7918 84.6974 53.799C83.272 53.9764 83.427 53.9984 83.272 54.0059L82.7401 53.9689C82.7476 54.0207 82.7181 54.0576 82.6589 54.0576C82.0532 53.9764 81.7431 53.8803 81.7356 53.7695C81.8169 53.1936 81.9573 52.898 82.1567 52.8832L82.2601 52.876L82.1714 53.068L82.2749 53.0605C82.4669 52.9572 82.5556 52.8611 82.5481 52.7725L82.5333 52.573L82.3413 52.5879L82.3265 52.4033C82.3118 52.2629 82.3339 52.1373 82.3856 52.034L82.8214 51.3324L82.8362 51.517L83.0429 51.5021L83.0282 51.3176L82.9101 51.1477C83.0651 51.0148 83.1833 50.9408 83.2792 50.9336L83.272 50.8375L82.9913 50.8598L82.969 50.5791C83.5304 49.4121 83.7962 48.7326 83.7815 48.5406L83.981 48.6219C84.1065 48.6145 84.1655 48.5406 84.1581 48.4076L83.9661 48.4225L83.9587 48.3412C83.9452 48.2064 83.9708 48.0705 84.0325 47.9498C84.3355 47.6322 84.4757 47.3146 84.4462 46.9822C84.5054 46.9748 84.5349 47.0045 84.5423 47.0709C84.8007 46.9232 85.0001 46.5318 85.1478 45.8818C85.6058 45.0547 86.2556 43.4004 87.105 40.9262C88.7298 36.5539 88.6634 36.0887 88.8923 35.0547L88.7003 35.0693C88.7149 35.2023 88.6854 35.3279 88.6265 35.4461C88.4935 35.3943 88.3901 35.3648 88.3163 35.3723L88.3089 35.291C88.2792 34.9143 88.4345 34.4639 88.789 33.932L88.8774 33.9246L89.0399 34.5598L89.2319 34.5451C89.2247 34.5008 89.2763 34.2496 89.3798 33.7844C89.3724 33.6883 89.2985 33.6293 89.1507 33.6219L88.9661 33.74C88.9515 33.607 88.9587 33.26 88.981 32.7061L88.8849 32.7135C88.7224 32.551 88.6411 32.418 88.6337 32.3072L87.5776 32.4105C87.5702 32.3367 87.5333 32.226 87.4595 32.0857C87.4521 31.9896 87.6884 31.8936 88.1759 31.7977L88.3901 31.8789L88.5896 31.7607C88.5968 31.8271 88.6337 31.8566 88.7075 31.8494L88.9069 31.7312C88.9144 31.7977 88.9513 31.8271 89.0253 31.8197L89.1212 31.8125L89.1063 31.5982C88.9587 31.6131 88.5673 31.6131 87.947 31.5908L87.7476 31.7238L87.7401 31.6057C82.7845 32.0117 79.9706 32.2408 79.2985 32.3072C79.2099 32.3146 78.8628 32.3072 78.2497 32.2924C78.2571 32.3736 78.1833 32.418 78.0356 32.4328L77.8214 32.3367L77.0976 32.5215C76.9276 32.5361 76.6397 32.5287 76.2409 32.4846C76.1302 32.573 75.9972 32.6248 75.8347 32.6396C75.746 32.6469 76.8907 32.5805 77.9542 32.5066C77.8435 32.5953 77.6737 32.6469 77.4374 32.6691C77.2749 32.684 77.1345 32.6617 77.0163 32.5953C76.8538 32.6691 76.3296 32.7873 75.4507 32.9645L75.2364 32.8834L71.78 33.415C71.647 33.3486 71.4919 33.3264 71.3147 33.3412C71.13 33.3561 70.8198 33.4225 70.3915 33.5406L68.7224 34.2348L68.848 34.4416C68.9292 34.4342 69.0474 34.39 69.1876 34.3088L69.7786 34.3604L69.7046 34.9143C69.1581 35.158 68.8405 35.5199 68.7519 35.9779C67.9321 36.3396 67.5259 36.5982 67.5259 36.7533L67.5333 36.8494L67.6589 36.842L67.8804 36.7238L68.139 37.034L68.1759 37.4623C68.1905 37.5953 66.8095 40.4979 64.0474 46.1699C61.6544 51.6352 60.3989 54.6264 60.2808 55.1654C59.461 55.3943 58.9882 55.7268 58.8479 56.1699C58.8628 56.3102 59.1063 56.4062 59.579 56.4432L59.6013 56.6572L59.387 57.0117L59.4239 57.4402C59.4462 57.6617 60.0444 57.8316 61.2187 57.9498C61.2112 57.876 61.2483 57.8316 61.3294 57.8242C61.3517 58.09 61.2778 58.607 61.1079 59.3752L61.2335 59.3678C61.7208 58.7031 61.9499 58.2451 61.9276 57.9941L62.0312 57.9867C62.1493 57.9793 62.2749 58.1123 62.4226 58.4002C62.2749 58.4594 61.7579 59.6336 60.8716 61.9307L60.9972 62.1373L61.1228 62.1301C62.2083 59.3826 62.8878 57.8611 63.1685 57.573C64.5938 57.4475 67.0606 57.1965 70.5614 56.8197L70.7829 56.6869C70.7903 56.7607 70.8347 56.7977 70.9159 56.7902L71.1448 56.7682L71.3665 56.6352C71.3737 56.709 71.4181 56.7459 71.4993 56.7385L74.1507 56.5096C74.8524 56.4506 75.1847 56.2363 75.1552 55.8744C75.1478 55.7785 75.5614 55.6676 76.396 55.5494C76.4772 55.542 76.5954 55.5643 76.7579 55.616C76.7505 55.5494 77.1714 55.483 78.0134 55.4092C78.0356 54.966 78.1759 54.7297 78.427 54.7076L78.4048 54.4934C78.1685 54.5154 77.9026 54.5746 77.5925 54.6779C77.0386 54.6484 76.6841 54.6041 76.5362 54.5523C76.3886 54.6336 76.2778 54.6779 76.1966 54.6854L74.3501 54.7445L74.1286 54.8627C74.1212 54.7961 74.0769 54.7666 73.9956 54.774L73.8923 54.7814L73.656 54.8996C73.6485 54.833 73.4565 54.7814 73.0724 54.7297L72.8362 54.8699L72.3782 54.9068L72.3708 54.7887C74.7489 54.5303 75.9233 54.2053 75.8937 53.8213C76.0489 53.8064 76.1302 53.8803 76.1448 54.0355L76.8392 53.8582L76.8169 53.6439L71.1228 53.799C71.13 53.873 71.0931 53.9172 71.012 53.9246L70.3177 53.8656C70.1403 53.8803 69.9927 53.932 69.8745 54.0207L69.6161 53.9246C68.8997 53.9838 68.3679 54.0725 68.0134 54.1832C67.5259 54.1463 66.9868 54.1535 66.3886 54.2053L65.1108 54.316L64.52 54.2496C64.4905 53.873 65.2216 52.0191 66.7282 48.6957C67.1642 47.573 67.5628 46.8715 67.947 46.6057C68.0282 46.5982 68.1464 46.6277 68.3089 46.6941L69.2173 46.384L69.6825 46.4578C70.4653 46.3914 71.3737 46.1699 72.4151 45.7857C72.6737 45.7637 72.8657 45.7785 73.006 45.8375L73.7003 45.675L75.7683 45.4979C76.647 45.424 77.5997 45.2318 78.6337 44.9143L78.6116 44.7002C78.2276 44.7371 78.0282 44.6707 78.0134 44.5154C77.9913 44.2275 77.7106 44.1094 77.1714 44.1535L77.1493 43.9395L77.7181 43.777L79.2099 43.6514L79.1876 43.4373C79.1286 43.4445 78.8259 43.4373 78.2645 43.415L78.2423 43.1861L78.8185 43.1344C78.9735 43.1197 79.0399 43.0457 79.0253 42.898C78.2497 42.9203 77.8583 42.8834 77.8509 42.7799C72.4446 43.0457 69.7343 43.0975 69.7194 42.9275C69.6382 42.935 69.5274 42.9867 69.3798 43.0754L69.2394 42.8537C70.6722 39.8109 71.5142 38.2748 71.7579 38.2525C71.7651 38.3707 71.7062 38.5627 71.5731 38.8213L71.5806 38.9172L71.8095 38.8951C72.3782 37.5361 72.8583 36.8346 73.2571 36.8051C74.9558 36.6572 73.0208 36.5465 76.6544 35.9779C76.8022 36.0443 76.9056 36.0738 76.9794 36.0664C78.4048 35.7785 80.3915 35.4756 82.9396 35.1654L82.9247 34.9512L81.5657 35.0768L81.5511 34.8627C81.7136 34.8479 81.8464 34.7961 81.9573 34.7076L81.9645 34.8258C82.0386 34.8184 82.1419 34.7666 82.2749 34.6779C82.5112 34.6559 82.6884 34.6779 82.814 34.7445C83.2866 34.6189 83.6706 34.5451 83.9513 34.5154L84.8007 34.4342C85.0075 34.3014 85.1034 34.1832 85.0962 34.0725L85.0888 33.9764C84.8745 33.9984 84.6308 33.9838 84.3429 33.932C84.3354 33.8139 84.3944 33.7326 84.5349 33.6957L86.1153 33.548L86.8392 33.3633C86.8464 33.4445 86.8835 33.4742 86.9425 33.4742C87.0163 33.4668 87.1198 33.415 87.2526 33.3264C87.2896 33.3338 87.3339 33.3338 87.3708 33.3412C87.2749 33.5406 87.164 33.8287 87.0532 34.2053L86.8464 34.2201C86.8317 34.0797 86.7948 33.9543 86.7282 33.8434L86.6249 33.8508C84.7046 39.1979 83.848 41.6869 82.0755 45.7932C81.7505 46.842 81.4772 47.4254 81.2409 47.551C81.2483 47.6691 81.3222 47.7281 81.4478 47.7135C81.4919 48.2305 81.3737 48.74 81.0858 49.2422C80.2659 51.6057 79.7194 52.898 79.4388 53.1344L79.6233 54.2496C79.6308 54.3678 79.5718 54.4342 79.4462 54.449L79.2542 54.4639C79.2245 54.1535 79.1138 54.0059 78.9144 54.0281L78.811 54.0355C78.5599 54.427 78.3679 54.8773 78.2423 55.4018L78.4343 55.3869C78.6929 55.2172 78.811 55.0178 78.7888 54.7887L79.1729 54.7518L79.3944 54.833C79.2173 55.1137 79.136 55.3354 79.1507 55.5051L79.2542 55.6824L79.003 56.2732L79.0104 56.3693C79.2319 56.3471 79.4757 56.4209 79.7343 56.576C79.9114 56.5613 80.1034 56.4801 80.3177 56.3396C80.5392 56.3176 81.3663 56.3102 82.7919 56.3102L83.5081 56.0664C84.3798 56.059 84.52 56.0813 85.2733 56.0148L85.5835 55.9852L85.746 55.8744L85.7534 55.9705C86.5437 55.9039 86.5954 55.9557 87.2157 56.0295L87.2231 56.1256L86.7874 56.1625L86.8021 56.3471C86.9351 56.3324 87.0532 56.2953 87.1493 56.2143C87.2601 56.2068 87.3265 56.2658 87.3339 56.3988C87.1567 56.4137 86.9573 56.4578 86.7356 56.5318L86.5437 56.4652C86.2409 56.5465 86.3073 56.5687 86.1005 56.5834L85.7978 56.5244C85.8052 56.576 85.7755 56.6129 85.7239 56.6129C85.7312 56.7313 85.7978 56.7902 85.9085 56.7828L86.2187 56.7533L87.836 56.6129L88.4491 56.4801C88.4565 56.5318 88.4786 56.5613 88.5304 56.5539L88.8257 56.4432L89.3798 56.3988C89.8081 56.3619 89.8007 56.3324 90.7312 56.1846C90.7239 56.1256 90.746 56.1033 90.7903 56.0961L90.7978 56.1771C92.3118 55.9187 92.4077 55.9039 92.6515 55.8227L92.6735 55.867C93.0503 55.7785 92.836 55.8006 92.9396 55.7268C92.947 55.7932 92.969 55.8227 93.006 55.8227L93.2718 55.8006L93.2571 55.6012L92.7179 55.5937L92.7106 55.5791C92.6884 55.5863 92.6735 55.5863 92.6515 55.5937H92.5776V55.6086C92.2157 55.6824 92.2083 55.6307 91.972 55.6529L90.6204 55.7268L90.613 55.6307L91.3663 55.5273L91.6396 55.5051L91.7948 55.3943L91.8021 55.4904C92.8657 55.4018 93.2423 55.6676 98.161 54.6189C98.4269 54.5967 98.4048 54.3752 98.5747 53.9172C98.4846 53.9234 98.3946 53.9028 98.3161 53.8582C97.9101 54.0133 97.6958 53.9395 96.913 54.065C96.8464 54.0725 96.7948 54.0133 96.7726 53.8951L96.7651 53.8139L97.5185 53.8359C97.6589 53.8213 97.9321 53.799 98.3384 53.5701C98.3384 53.6367 98.1905 53.6736 98.2792 53.6662V53.6662ZM61.913 54.2496L61.5657 54.2791C61.5511 54.1389 61.7356 53.607 62.1196 52.6986L62.3487 52.6766C62.3562 52.8906 62.2157 53.415 61.913 54.2496ZM62.3339 52.5658L62.3265 52.4697C62.319 52.3516 62.3931 52.2703 62.5556 52.2334L62.5628 52.3293C62.5702 52.4697 62.4964 52.551 62.3339 52.5658V52.5658ZM66.9499 56.133L66.9573 56.2289L66.3812 56.2807L66.3737 56.1846L66.9499 56.133ZM66.2556 56.0738C66.263 56.192 66.0858 56.325 65.7017 56.4578L64.9927 56.4063L64.7638 56.4283L64.7417 56.2143L66.2556 56.0738V56.0738ZM70.9233 34.5895L70.5761 34.6189L70.5689 34.5008C70.5614 34.3826 70.6278 34.3014 70.7755 34.2645L70.9011 34.257L71.1374 34.3529C71.1448 34.4934 71.0784 34.5746 70.9233 34.5895V34.5895ZM76.204 33.5555L76.3147 33.548L76.3294 33.7621L76.0118 33.7918C76.0046 33.6736 76.0636 33.5924 76.204 33.5555ZM74.8745 34.0207L74.3501 33.9615L74.3427 33.8656C75.0296 33.8064 75.2585 33.7326 75.6796 33.6145C75.687 33.6957 75.7608 33.7252 75.8937 33.7105L75.9085 33.9246L75.7017 33.9469C75.5392 33.9615 75.3989 33.9395 75.2808 33.873C75.1552 33.9543 75.0222 34.0059 74.8745 34.0207V34.0207ZM75.5319 35.9336L75.5245 35.8375L76.3737 35.7562L76.3812 35.8523L75.5319 35.9336ZM76.4403 35.1949L76.4329 35.0768L76.8464 35.0398L76.8538 35.158L76.4403 35.1949ZM76.5362 33.7475L76.4255 33.7549L76.5216 33.5258L77.4669 33.4373L77.4743 33.5555C77.2306 33.5775 76.913 33.6439 76.5362 33.7475V33.7475ZM77.0163 35.7857L77.0015 35.5717L77.4151 35.5348C77.5556 35.5199 77.6294 35.5863 77.6368 35.7342L77.0163 35.7857V35.7857ZM79.52 32.3736L78.9882 32.5215L78.8923 32.5287C78.6411 32.551 78.3161 32.5436 77.9321 32.5066C78.619 32.4623 79.2763 32.4105 79.52 32.3736V32.3736ZM78.9513 34.7371L78.9587 34.833L78.2276 34.8996L78.2202 34.8035L78.9513 34.7371ZM80.1478 35.3057C80.1403 35.2172 80.0001 35.158 79.712 35.1285L78.981 35.3354L78.4196 35.3574C78.294 35.2687 78.2276 35.2098 78.2202 35.1654L78.8702 35.2023L80.3325 34.966L81.0784 34.9955L81.0858 35.1137C80.7165 35.1506 80.4063 35.2172 80.1478 35.3057ZM87.6737 33.3633C87.7622 33.3707 87.8214 33.3707 87.8435 33.3707C88.1021 33.1197 88.3901 32.9203 88.7224 32.7799C88.4565 33.9469 88.0429 34.8109 87.4743 35.3723L87.0606 35.1211C87.4077 34.2422 87.6146 33.6588 87.6737 33.3633V33.3633ZM86.4034 35.5422L86.5067 35.5348C86.3663 35.8006 86.2409 35.9408 86.1374 35.9482L86.1153 35.6676C86.1817 35.6676 86.2778 35.6232 86.4034 35.5422ZM85.5835 37.4992C85.7829 36.7016 85.9749 36.2512 86.1522 36.133L86.1597 36.2289C86.0562 36.9676 85.8937 37.359 85.6796 37.3885L85.7165 37.8537C85.5392 38.1049 85.4579 38.2969 85.4653 38.4445L85.362 38.452L85.3028 37.8094C85.421 37.7947 85.5171 37.6912 85.5835 37.4992V37.4992ZM85.2659 38.5627C85.2733 38.6736 85.1995 38.932 85.0519 39.3309L84.9483 39.3383L84.9263 39.0576C85.0665 38.7326 85.1847 38.5701 85.2659 38.5627ZM79.306 55.8596L79.2985 55.7785L79.4905 55.7637L79.5126 56.0443C79.4093 56.0518 79.3354 55.9926 79.306 55.8596ZM87.8214 56.0812C87.814 56.0148 87.7845 55.9852 87.7181 55.9926L87.238 56.0369L87.2306 55.9408H87.2749L88.4122 55.8449L88.4196 55.9408C88.0872 55.9557 87.8878 56.0074 87.8214 56.0812V56.0812ZM87.2526 55.8449C87.297 55.867 87.2749 55.8893 87.2526 55.9039C87.2306 55.8967 87.2011 55.8744 87.2526 55.8449ZM87.3118 54.5154L86.6767 54.5672L86.6692 54.4711L87.2452 54.4195L87.7476 54.2939C87.755 54.3529 87.7845 54.3752 87.8509 54.3678C88.4491 54.2645 88.3901 54.235 88.678 54.2127C88.7741 54.2053 88.8333 54.2645 88.8405 54.3826L87.3118 54.5154V54.5154ZM89.5349 54.3234C89.1804 54.2865 89.1581 54.257 88.9071 54.2791L88.8997 54.1979L89.4683 54.1463L89.4757 54.2275C89.4167 54.235 89.6308 54.2496 89.5349 54.3234ZM89.5792 54.2201L89.5718 54.1389L89.8819 54.1094L89.8894 54.1906L89.5792 54.2201ZM90.2659 54.1609L90.2587 54.0797C90.3103 54.0725 90.3841 54.0355 90.4802 53.9615C90.6353 53.9469 90.7165 54.0502 90.7313 54.1684L90.2659 54.1609V54.1609ZM91.1448 54.0502L91.1374 53.9543L91.5142 53.9246L91.5216 54.0207L91.1448 54.0502ZM91.6692 54.0059C91.6618 53.8951 91.7062 53.8287 91.8022 53.8139L91.9276 53.9764C91.9204 53.9246 91.9425 53.8951 91.9868 53.8877L92.0829 54.065L91.6692 54.0059ZM86.0933 56.4137L86.0784 56.2289L86.0192 56.2363L86.0341 56.4209L86.0933 56.4137ZM99.0696 53.0531C99.1286 53.0162 99.1581 52.9793 99.0179 52.9572C98.9513 53.0311 99.0917 53.0531 98.944 53.0605L98.9513 53.127C98.9661 53.1123 99.003 53.09 99.0325 53.068L98.9513 53.1344V53.1418L98.7962 53.3412L99.1064 53.2305H99.1435L99.1286 53.0457L99.0696 53.0531ZM99.6087 53.4742L99.5495 53.4816L99.5644 53.6662L100 53.6293C99.9927 53.5111 99.7046 53.4742 99.6087 53.4742ZM98.9366 53.1492L98.944 53.1418V53.1344C98.944 53.1344 98.9366 53.1418 98.9366 53.1492Z" fill="black"/>
<path d="M70.5834 39.4785L70.5908 39.5967L70.8346 39.5746C70.8271 39.5008 70.8566 39.3826 70.9084 39.2348L70.8863 39.0207C70.7828 39.0281 70.6795 39.1832 70.5834 39.4785V39.4785ZM68.2496 33.8656L68.2275 33.6514L67.8803 33.6809L67.9025 33.8951L68.2496 33.8656V33.8656ZM61.4771 46.5465C61.4623 46.3471 60.842 45.5717 59.616 44.2053C59.5938 43.9543 60.0148 43.5775 60.8789 43.0828L63.3457 40.9336C63.8996 40.2318 64.2244 39.0945 64.3205 37.5141L64.291 37.1521C64.1949 36.059 63.4047 35.1803 61.9055 34.5082C61.0191 33.91 59.4238 33.5775 57.1197 33.5184C55.2143 33.6809 52.7252 34.3604 49.6604 35.5643C48.8184 36.1699 47.8582 36.7754 46.7799 37.3811L46.7947 37.5658C46.8611 37.5584 46.9645 37.5215 47.0828 37.4402C47.2082 37.4254 47.2822 37.4846 47.2895 37.6027L47.4742 37.5066L47.5627 37.4992L47.5701 37.5805C47.5775 37.6766 46.9129 38.2008 45.5687 39.1389L45.6721 39.3309L45.5834 39.3383L45.3619 39.257C45.3693 39.3234 45.2732 39.3678 45.0887 39.3826L45.0961 39.4639L45.3102 39.7297C45.2438 39.7371 45.1404 39.7076 45 39.6559C44.6898 39.6854 44.3869 39.8479 44.0842 40.158L44.2098 39.6115C44.6604 37.6691 44.9705 35.9482 45.133 34.4564L45.1107 34.3604C44.8006 34.1609 44.4979 33.8803 44.2172 33.5258C44.2246 33.2969 44.2246 33.1639 44.2172 33.1344L44.1949 33.0531L44.1064 33.0754C43.1314 34.5377 41.2555 37.034 38.4713 40.5643C36.3516 43.0754 35.2584 44.4711 35.192 44.7518C34.3279 45.6455 33.9143 46.1846 33.9586 46.3693C33.7297 46.517 33.6336 46.6646 33.6707 46.8271C33.6041 46.842 33.5598 46.8197 33.5451 46.7533C33.1758 47.3516 32.6293 47.7355 31.898 47.9055L31.1299 48.0826C31.0266 48.1049 30.9748 48.1787 30.9822 48.3043L31.0045 48.4002L31.2924 48.3338L31.3146 48.415L30.6646 48.6662L29.5125 48.932L28.907 48.9689C28.8184 49.0576 29.3869 48.9615 29.1654 49.0133L28.4121 49.1906C27.9543 49.2939 27.7031 49.257 27.6588 49.0725L27.5701 49.0945C27.585 49.1758 27.5924 49.2348 27.5775 49.2865L27.5332 49.102L26.9275 49.2422C26.8834 48.9615 26.0635 47.9424 24.4756 46.1846C24.4461 45.8449 25.0074 45.35 26.1521 44.7076L29.3869 41.8641C30.1107 40.9336 30.5391 39.4416 30.6795 37.3885L30.6352 36.9084C30.5096 35.4609 29.4609 34.2939 27.4889 33.393C26.3221 32.6027 24.2246 32.1816 21.1965 32.1152C18.6854 32.3293 15.4063 33.223 11.3736 34.7814C10.2658 35.5863 9.00293 36.384 7.58496 37.1742L7.60703 37.4254C7.70313 37.418 7.82871 37.3664 7.98379 37.2777C8.14629 37.2629 8.23496 37.3367 8.24961 37.4846L8.50078 37.3441L8.62637 37.3367L8.63359 37.4549C8.64102 37.573 7.76211 38.26 5.98223 39.5154L6.12266 39.7371L5.99707 39.7445L5.72383 39.6484C5.73125 39.7223 5.60566 39.774 5.34707 39.7961L5.36191 39.9291L5.65723 40.2541C5.56133 40.2615 5.42832 40.2318 5.25859 40.1729C4.68242 40.2244 4.12109 40.6381 3.56719 41.4209L3.70762 41.6426C4.1877 41.1994 4.46816 40.9779 4.54941 40.9705L4.5791 41.3324C4.49785 41.3396 4.37227 41.3914 4.20234 41.4801L4.50527 41.9379C5.0772 41.3198 5.72483 40.7764 6.43281 40.3205C6.77988 40.4092 6.96465 40.5199 6.97187 40.6381L7.23789 40.616C9.14336 39.2053 11.0266 38.1861 12.8951 37.5584L12.9174 37.8094C12.5701 38.3264 12.3338 38.5924 12.2082 38.607C12.223 38.7844 12.2822 38.9395 12.393 39.0725C12.4225 39.39 11.573 41.5318 9.85234 45.4904C5.94531 54.6928 2.66621 61.5021 0 65.9039C0.00742187 65.9926 0.0591797 66.1107 0.155078 66.2584C0.8125 66.1033 1.22598 65.941 1.40332 65.7857L1.54355 65.7711L1.56582 66.0221L1.80937 66L2.06055 65.8598C2.06797 65.9336 2.14922 65.9705 2.31914 65.9557L2.34121 66.2068C2.36328 66.4506 2.22305 66.8197 1.92754 67.3293C1.66172 67.6322 1.37363 68.2674 1.0709 69.235L1.07832 69.3529L1.32207 69.3309C2.38555 68.1418 3.19063 66.9748 3.74453 65.8375C6.84648 64.9291 9.20977 64.0353 10.8494 63.1566C12.4963 63.0162 13.7518 62.5805 14.6086 61.8641L14.5938 61.7312L13.9734 61.9158L13.833 61.9307L13.8184 61.7977C15.0295 61.6131 15.8641 61.3471 16.3295 60.9779C18.6854 59.1609 20.4652 57.876 21.6691 57.1152C24.1434 55.2984 25.7533 53.5258 26.4846 51.8051C26.6174 51.7754 26.7504 51.7459 26.898 51.709C27.2451 51.6943 27.4373 51.6869 27.4889 51.6721C27.4742 51.6057 27.5037 51.5687 27.5701 51.5539C28.124 51.4949 27.8582 51.5908 28.2127 51.5096L29.1434 51.2955L29.2984 51.2584L29.2246 51.3027C29.3279 51.3176 29.4387 51.3102 29.5643 51.2807L29.6307 51.5539L25.3988 58.282L24.4609 59.4564L24.0029 60.9926L24.0916 60.9705L24.5494 60.7785L24.4018 61.3768L24.4461 61.5539L24.5717 61.709C24.5125 61.7238 24.4904 61.7607 24.5051 61.8271L24.5273 61.9232L24.7193 61.8789C25 61.6352 25.1182 61.4137 25.0738 61.2143C25.3766 61.2658 25.576 61.2881 25.6795 61.2586L25.7016 61.3545C25.517 61.3988 25.4209 61.5465 25.4063 61.7977L25.4283 61.8936L25.5318 61.8715C27.068 60.1949 30.8346 54.4564 33.8553 50.5643C33.7592 50.1434 35.3324 49.5598 38.582 48.8064L38.6854 48.7844C38.8035 49.2939 38.5525 50.5273 37.932 52.4846C37.5332 53.6662 37.3412 54.316 37.3707 54.4195C36.8537 55.9926 36.61 56.842 36.6396 56.9748L35.4875 60.7488C34.7414 62.684 34.1729 64.7148 33.774 66.8566C33.8404 66.842 33.9439 66.8494 34.0916 66.8863L34.2541 66.7459C34.2687 66.8125 34.3131 66.8346 34.3797 66.8197L34.3131 66.5465L34.8154 66.5318C34.9631 66.4949 35.0887 66.3102 35.192 65.9705C35.1699 65.4609 35.2732 65.1877 35.5021 65.1285C35.8123 63.9174 36.0045 63.3117 36.0709 63.2895C36.359 62.0857 36.573 61.3988 36.7135 61.2289C37.1492 59.6633 37.4668 58.8582 37.6736 58.8064L37.718 58.9984L37.4004 59.8184C36.8463 62.2777 36.2852 64.2201 35.7164 65.6455L35.8789 66.3545L35.9822 66.3324C37.3561 63.3781 39.3354 57.5287 41.9129 48.7844C41.9867 48.0162 42.3561 47.418 43.0133 46.9971L42.8656 46.842L42.8434 46.7607C43.1389 46.6941 43.3457 46.5762 43.4639 46.4137C43.449 46.3471 43.1906 46.2512 42.6883 46.1182L43.9734 40.6086C44.2541 40.3574 44.4166 40.2246 44.4682 40.2246L44.4904 40.5051C44.424 40.5125 44.3205 40.5494 44.2023 40.6307L44.4461 40.9779C44.8893 40.4979 45.3693 40.0842 45.8936 39.7371C46.1596 39.8109 46.2924 39.8996 46.3072 39.9881L46.4992 39.9734C47.9615 38.9025 49.3943 38.1344 50.8051 37.6691L50.8197 37.8537C50.5613 38.2451 50.384 38.4445 50.2881 38.452C50.3027 38.585 50.3396 38.7031 50.4062 38.8064C50.4283 39.0502 49.7932 40.675 48.4934 43.6883C45.5244 50.6676 43.0354 55.8301 41.0117 59.1832C41.0191 59.2496 41.0635 59.3383 41.1447 59.4564C41.6396 59.3383 41.9572 59.2127 42.0828 59.0945L42.1713 59.0871L42.1861 59.2717L42.393 59.257L42.5775 59.1609C42.585 59.2127 42.6514 59.2348 42.777 59.2275L42.7918 59.427C42.8064 59.6041 42.7031 59.8848 42.4742 60.2687C42.26 60.4978 42.0385 60.9779 41.8021 61.709L41.8094 61.8051L42.0016 61.7902C42.8064 60.8893 43.4195 60.0029 43.8404 59.1314C46.1965 58.4373 47.9912 57.765 49.2318 57.1004C50.4949 56.9896 51.4475 56.6646 52.0975 56.1182L52.09 56.0221L51.61 56.1625L51.5066 56.1699L51.4992 56.0738C52.415 55.9408 53.0576 55.7342 53.4047 55.4609C55.192 54.0871 56.5436 53.1049 57.4594 52.5287C60.3102 50.4535 61.6396 48.4594 61.4771 46.5465V46.5465ZM60.9896 46.6721L61.0561 47.418C60.9676 47.6027 60.8715 47.6986 60.7828 47.7061L60.6721 46.4357C60.8789 46.5096 60.9822 46.5834 60.9896 46.6721V46.6721ZM5.06641 40.6604L4.94102 40.6676L4.91875 40.4387L5.42832 40.3943L5.43574 40.5125C5.35449 40.5199 5.22891 40.5643 5.06641 40.6604V40.6604ZM2.57754 65.5568C2.28223 65.4238 2.01621 65.3723 1.7873 65.3943L1.75781 65.0324C1.74297 64.8922 1.82422 64.7961 2.00156 64.7592C2.16387 64.7445 2.25996 64.8627 2.2748 65.099C2.70313 64.5746 2.93945 64.3088 2.98379 64.3014L3.25703 64.4121C3.16836 65.1506 2.93945 65.5273 2.57754 65.5568V65.5568ZM29.1729 37.7355C29.0473 37.7504 28.7961 37.359 28.4344 36.5834L28.4121 36.3545C28.6484 36.3324 28.8922 36.7164 29.1506 37.5066L29.1729 37.7355V37.7355ZM28.8184 34.9809L28.7148 35.2246L25.1033 33.7178C27.5111 33.799 28.752 34.2201 28.8184 34.9809ZM13.5672 48.0754L13.0576 48.1197L13.0355 47.8906L13.5451 47.8463L13.5672 48.0754ZM13.1535 40.2098L13.2791 40.2023L13.3088 40.5643C13.1906 40.5717 13.0355 40.7488 12.8434 41.0887L12.8213 40.8375C13.0502 40.5643 13.1684 40.3574 13.1535 40.2098V40.2098ZM12.0826 42.7355L12.127 43.2156L12.0016 43.223L11.9572 42.743L12.0826 42.7355ZM11.5215 43.6367L11.7652 43.6145C11.743 44.0133 11.6322 44.2275 11.4328 44.2422L11.3072 44.2496C11.4623 43.9838 11.5361 43.777 11.5215 43.6367V43.6367ZM11.1004 44.8922L11.2408 44.8773L11.248 44.9955L11.0191 45.3797L10.7754 45.4018L10.7682 45.2836C11.0119 45.2615 11.1227 45.1359 11.1004 44.8922V44.8922ZM10.6869 46.0223L10.6131 46.6277L10.4875 46.6352L10.4357 46.0369L10.6869 46.0223V46.0223ZM6.54355 57.8021C6.38105 58.6293 6.20391 59.0502 6.01914 59.065L6.01191 58.9469C5.96758 58.5406 6.14473 58.1566 6.54355 57.8021V57.8021ZM5.78281 59.449L5.79023 59.5672C5.80508 59.7297 5.73125 59.8258 5.56875 59.833L5.56133 59.7148C5.54648 59.5746 5.62031 59.4859 5.78281 59.449ZM5.56133 62.8686L5.94531 62.8316L5.96016 62.9646C5.86406 62.9719 5.73848 63.0236 5.5834 63.1123L5.33965 63.1344C5.325 63.0088 5.40625 62.9129 5.56133 62.8686V62.8686ZM16.4918 59.4934C14.3354 60.5568 13.065 61.2807 12.6883 61.6572C10.3545 62.4697 9.19492 62.9719 9.21719 63.1713C7.1418 63.9912 5.77539 64.5967 5.11816 64.9734C4.96309 64.9881 4.7416 64.9291 4.44609 64.7961C4.40918 64.3752 4.60117 64.0353 5.00742 63.7621C5.36934 63.7326 5.71641 63.7844 6.04883 63.9246C6.43281 63.7252 7.10488 63.5037 8.05762 63.2674L8.03555 63.0162L7.26738 63.0826C7.36328 62.9498 8.10195 62.6027 9.49043 62.0414L9.87441 62.0045L9.88184 62.1227C9.22461 62.1816 8.8627 62.3736 8.78145 62.7209C8.79609 62.876 8.88477 62.9424 9.04727 62.9275C9.54219 62.6174 9.78574 62.4328 9.77852 62.3811C10.7164 62.2039 13.3088 60.8449 17.5555 58.3117L17.5775 58.5406C17.585 58.6514 17.223 58.9615 16.4918 59.4934V59.4934ZM9.97793 61.6352C10.5982 61.5834 11.1301 61.3324 11.573 60.8967C11.7504 60.8818 11.8465 60.9482 11.8537 61.1033C11.551 61.133 10.9676 61.384 10.1182 61.8715L9.99258 61.8789L9.97793 61.6352ZM20.4875 53.5627L17.2305 56.1477C14.808 57.7355 13.5082 58.5332 13.316 58.548C9.46094 60.6676 7.06055 61.7682 6.13008 61.8494L5.98965 61.8641C6.10781 61.4283 7.82129 57.9203 11.1447 51.3176C12.607 51.192 14.9113 50.5125 18.0502 49.2719L18.8184 49.2053C20.4062 49.065 21.5953 49.3752 22.3781 50.1137L22.4225 50.5937C21.8391 52.2852 21.1891 53.2748 20.4875 53.5627V53.5627ZM14.1211 49.9809L14.6455 49.9365L14.6529 50.0547L14.1285 50.099L14.1211 49.9809ZM21.4846 48.7326L21.8686 48.6957C22.223 48.8656 22.4076 49.0133 22.4225 49.1463L22.4299 49.2645C22.09 49.2939 21.7725 49.1166 21.4846 48.7326V48.7326ZM22.5258 42.8021C22.1861 43.2082 21.2555 43.9025 19.7342 44.8773C19.2318 44.9217 17.3633 45.6455 14.1285 47.0635C13.9668 46.9896 13.7886 46.959 13.6115 46.9748L13.5895 46.7459C13.5525 46.2807 13.7592 45.6973 14.2172 44.9883C14.4682 43.6588 14.7416 42.898 15.0443 42.7135L17.74 36.65C17.7105 36.2732 18.2865 35.9852 19.4682 35.7857L19.8523 35.7488L19.8818 36.0961C21.0414 35.9187 21.765 35.8154 22.0457 35.7932C24.1877 35.6086 25.3027 36.0443 25.3914 37.0857L25.6352 37.0635L25.5834 36.4506L25.8494 36.4283C26.4771 36.7754 26.8168 37.1965 26.8611 37.6912C26.8906 38.0311 26.7061 38.452 26.3146 38.9543C26.1521 38.9689 26.0561 38.8508 26.0414 38.6145L25.7754 38.6367L25.7164 39.3752C24.6307 41 23.8404 41.8346 23.3531 41.8789C22.91 42.4918 22.6367 42.7947 22.5258 42.8021ZM24.1803 47.0488C23.9586 46.901 23.7814 46.8346 23.6484 46.842L23.6189 46.4801L23.8627 46.4578L24.4018 46.7756C24.424 46.9453 24.35 47.034 24.1803 47.0488V47.0488ZM25.8938 49.0797C26.1301 49.1758 26.2703 49.2791 26.2998 49.3752L26.1816 49.4047L26.1891 49.4121C26.167 49.4121 26.1373 49.4195 26.1152 49.427L25.9379 49.5672L25.8938 49.0797V49.0797ZM26.0561 50.099L26.034 50.0029L26.3441 49.9291L26.3664 50.0252L26.0561 50.099ZM26.8021 50.9336C27.1197 50.8818 27.2748 50.8598 27.8656 50.7268L27.8877 50.8227L26.7652 51.0812C26.7799 51.0295 26.7947 50.9779 26.8021 50.9336ZM27.8951 51.3988C27.4225 51.4432 27.5258 51.384 26.7725 51.5539L26.7504 51.4578L27.6957 51.1551L28.1463 51.0518L28.1906 51.2289C27.9838 51.2732 28.1314 51.2732 27.8951 51.3988ZM28.8922 51.1625C28.7814 51.192 28.6928 51.1404 28.641 51.0148L28.9291 50.9482C29.0547 50.9187 29.1359 50.9705 29.1654 51.0961L28.8922 51.1625V51.1625ZM31.5953 48.2525L31.573 48.1566L32.0385 48.0457L32.0828 48.223L31.5953 48.2525ZM34.483 65.9631C34.5125 65.8301 34.5199 65.7342 34.5051 65.6676L34.6086 65.6455C34.7342 65.616 34.808 65.6603 34.8375 65.7785L34.8598 65.8744L34.483 65.9631V65.9631ZM36.5066 49.0133L36.2998 48.9764C35.9676 49.1094 35.6869 49.2053 35.4578 49.257L35.2658 49.3014C35.1551 49.3309 35.0664 49.2865 35.0221 49.1684L36.3736 48.8582L36.8168 48.6514L36.9646 48.8213C36.7504 48.8656 36.5953 48.932 36.5066 49.0133V49.0133ZM37.548 48.6809L37.5258 48.585C37.5924 48.5701 37.6809 48.5186 37.777 48.4225L38.7371 48.2008L38.7592 48.2969C38.2496 48.4225 37.8434 48.548 37.548 48.6809ZM37.6957 46.7385C37.6293 46.7533 37.5406 46.8123 37.4299 46.901C37.415 46.8346 37.2822 46.8346 37.0311 46.8936C36.9867 46.709 37.6957 46.4506 39.1654 46.1107L39.3723 46.0664L39.4166 46.2437C38.3826 46.5465 37.8064 46.7164 37.6957 46.7385ZM40.2807 43.9469C40.1773 45.1211 39.7637 45.7857 39.0324 45.9557L39.0104 45.8598L38.3604 46.1107L38.0725 46.1773C37.9246 46.2143 37.7918 46.2068 37.6736 46.1699L37.6145 45.9113C37.5924 45.8154 38.5303 44.5154 40.4357 42.0191L40.6572 42.0561C40.7385 42.3959 40.6131 43.0236 40.2807 43.9469ZM44.8523 40.0324L44.7637 40.0398L44.7488 39.8553L45.133 39.8184L45.1402 39.9143C45.0738 39.9291 44.9779 39.966 44.8523 40.0324V40.0324ZM42.9689 58.9469C42.7475 58.8434 42.548 58.799 42.3781 58.8139L42.3561 58.5332C42.3486 58.4373 42.4076 58.3707 42.5332 58.3338C42.6588 58.3191 42.7326 58.4076 42.7475 58.5996C43.065 58.1936 43.2422 57.9867 43.2791 57.9867L43.4785 58.068C43.4047 58.6293 43.235 58.9246 42.9689 58.9469V58.9469ZM63.1609 37.8242C63.065 37.8316 62.8803 37.5361 62.5924 36.9379L62.5775 36.7533C62.7621 36.7385 62.9543 37.0266 63.1463 37.6174L63.1609 37.8242V37.8242ZM62.8951 35.7119L62.8064 35.9039L60.0738 34.7592C61.898 34.8184 62.8434 35.1359 62.8951 35.7119ZM51.3072 45.6603L50.9232 45.6973L50.9084 45.5125L51.2924 45.4756L51.3072 45.6603ZM50.9896 39.6854L51.093 39.6779L51.1152 39.9586C51.0191 39.966 50.901 40.099 50.7607 40.3574L50.7459 40.1729C50.9158 39.9586 50.9971 39.7961 50.9896 39.6854V39.6854ZM50.1846 41.6057L50.2143 41.9676L50.1107 41.975L50.0812 41.6131L50.1846 41.6057ZM49.7488 42.2924L49.9408 42.2777C49.9188 42.5879 49.8375 42.7504 49.6973 42.765L49.5937 42.7725C49.7045 42.5658 49.7563 42.4033 49.7488 42.2924V42.2924ZM49.4387 43.2379L49.5273 43.2305L49.5348 43.3264L49.3648 43.6219L49.1729 43.6367L49.1654 43.5406C49.3648 43.5258 49.4535 43.4225 49.4387 43.2379V43.2379ZM49.1285 44.0945L49.0621 44.5672L48.9734 44.5746L48.9365 44.1094L49.1285 44.0945ZM45.9748 53.0531C45.8494 53.6736 45.7164 53.9912 45.576 54.0059L45.5687 53.9246C45.5465 53.6145 45.6795 53.3189 45.9748 53.0531ZM45.3914 54.3014L45.3988 54.3826C45.4137 54.5154 45.3545 54.5893 45.2215 54.5967L45.2143 54.5008C45.2068 54.4047 45.2658 54.3383 45.3914 54.3014V54.3014ZM45.2289 56.901L45.5244 56.8789L45.5316 56.9748C45.4652 56.9822 45.3619 57.0191 45.2437 57.0857L45.0518 57.1004C45.0443 56.9971 45.1033 56.9307 45.2289 56.901V56.901ZM53.5228 54.3383C51.898 55.1434 50.9305 55.6898 50.6277 55.9705C48.8553 56.5908 47.9764 56.9748 47.9912 57.1299C46.418 57.7578 45.384 58.2082 44.8967 58.4963C44.7785 58.5037 44.6086 58.4594 44.3869 58.3561C44.3574 58.0385 44.5051 57.7799 44.8154 57.5879C45.0961 57.5658 45.3619 57.6027 45.6057 57.7061C45.901 57.5584 46.4105 57.3959 47.1344 57.2111L47.1197 57.0266L46.5215 57.0783C46.5953 56.9748 47.1639 56.709 48.2201 56.2807L48.5154 56.2584L48.5229 56.3396C48.0207 56.384 47.74 56.5318 47.6809 56.7977C47.6883 56.9158 47.7621 56.9748 47.8877 56.9602C48.257 56.7164 48.4342 56.576 48.4342 56.5318C49.1434 56.4062 51.1078 55.3723 54.3353 53.4373L54.35 53.6219C54.35 53.6957 54.0768 53.932 53.5228 54.3383V54.3383ZM48.5746 55.9631C49.0547 55.9187 49.4609 55.7342 49.8006 55.4092C49.9262 55.4018 50 55.4535 50.0074 55.5717C49.7857 55.5937 49.35 55.7785 48.6928 56.133L48.5895 56.1402L48.5746 55.9631V55.9631ZM56.5658 49.8258L54.1064 51.8051C52.2674 53.0088 51.2703 53.6145 51.1152 53.6293C48.1906 55.2393 46.3736 56.0738 45.6572 56.133L45.5539 56.1402C45.6426 55.808 46.9498 53.1418 49.4756 48.1344C50.576 48.0385 52.3191 47.5141 54.7119 46.5687L55.3102 46.517C56.5141 46.4137 57.415 46.65 58.0059 47.2186L58.0355 47.5805C57.585 48.8508 57.0975 49.5967 56.5658 49.8258V49.8258ZM51.7355 47.1078L52.1197 47.0709L52.127 47.167L51.743 47.2039L51.7355 47.1078V47.1078ZM57.3264 46.1551L57.6219 46.133C57.8951 46.2658 58.0355 46.384 58.0428 46.4801L58.0502 46.5613C57.7918 46.5834 57.548 46.4506 57.3264 46.1551V46.1551ZM58.102 41.6572C57.8434 41.9676 57.1418 42.4992 55.9971 43.2379C55.6131 43.2748 54.1949 43.8213 51.743 44.8848C51.6248 44.8404 51.4918 44.8258 51.3516 44.833L51.3367 44.6484C51.3072 44.2939 51.4623 43.8508 51.8021 43.3117C51.9941 42.2924 52.2082 41.7238 52.4299 41.5908L54.4904 36.9822C54.4682 36.709 54.9039 36.4875 55.7902 36.3176L56.0857 36.2955L56.1078 36.576C56.9793 36.4357 57.5258 36.3545 57.7475 36.3324C59.3723 36.192 60.2215 36.517 60.2881 37.3146L60.4801 37.2998L60.4432 36.8566L60.6352 36.842C61.1078 37.1004 61.359 37.4105 61.3885 37.7799C61.4105 38.0457 61.2777 38.3707 60.9971 38.7475C60.8715 38.7621 60.7977 38.6736 60.7828 38.4814L60.5908 38.4963L60.5318 39.0502C59.7119 40.2984 59.1137 40.9408 58.7371 40.9705C58.4047 41.4209 58.1979 41.65 58.102 41.6572V41.6572ZM58.966 44.7297L58.9439 44.449L59.1359 44.4344L59.5494 44.6854C59.5568 44.8035 59.4979 44.8701 59.3723 44.8848C59.1949 44.774 59.0621 44.7223 58.966 44.7297V44.7297ZM24.5863 62.6691L24.3943 62.7135L24.2318 62.8537C24.2615 62.9719 24.3354 63.0162 24.4609 62.9867C24.5863 62.9572 24.6381 62.8834 24.6086 62.7652L24.5863 62.6691V62.6691ZM23.8553 61.2143L23.8773 61.3102C24.0029 61.2807 24.0547 61.2068 24.0252 61.0887L24.0029 60.9926C23.8848 61.0221 23.833 61.0961 23.8553 61.2143V61.2143ZM29.0842 51.3914L29.2246 51.3027C29.1949 51.3027 29.1729 51.2953 29.1506 51.2881C29.099 51.3027 29.0768 51.3396 29.0842 51.3914ZM29.0547 48.8434L29.2762 48.7918L29.2318 48.5996L29.0104 48.6514L29.0547 48.8434V48.8434ZM81.2482 56.3027L80.7459 56.2437L80.6572 56.4357L80.6646 56.5318L83.6559 56.2807L83.641 56.0961L81.2482 56.3027ZM83.9809 56.0738L83.9955 56.2584H84.025L84.0104 56.0738H83.9809ZM96.5287 54.4342L96.5436 54.6189L96.8686 54.6779L96.8537 54.4934L96.5287 54.4342V54.4342ZM96.0709 54.4711C93.8258 54.9734 93.5451 54.8848 93.0725 54.9217L93.0871 55.1062L93.2939 55.0916L93.4047 55.0842L93.3752 55.0621L93.6189 54.966C95.842 54.7223 96.1004 54.8109 96.0783 54.5598L96.0709 54.4711ZM82.5924 51.2068L82.393 51.1404C82.2305 51.576 82.1492 51.8346 82.1566 51.9084L82.1639 51.9896C82.3191 51.9822 82.4594 51.7164 82.5924 51.2068ZM79.8893 49.752L79.8818 49.6559L79.7785 49.6633L79.5937 49.7814L79.6973 49.9586C79.8375 49.9439 79.9039 49.8773 79.8893 49.752V49.752ZM85.7607 55.8227L85.7459 55.6381L85.6869 55.6455L85.7016 55.8301L85.7607 55.8227V55.8227ZM97.9469 53.0754L98.0871 53.0605C98.1684 53.0531 98.2053 52.9867 98.1979 52.8686L98.1166 52.6912C97.607 52.7355 97.3707 52.7578 96.9572 52.9867L96.9498 52.8906L96.3367 52.9498C96.3221 52.765 96.2703 52.6691 96.1891 52.6766L95.8715 52.7061C95.5021 52.7355 95.325 52.7209 95.1402 52.8611C95.133 52.7947 95.1107 52.765 95.0738 52.765L94.7193 52.7947L94.5125 52.9129C94.5051 52.8463 94.483 52.8168 94.4461 52.8168L94.3205 52.9275L94.3131 52.8316L93.8184 52.7947L93.7002 52.8021L93.7148 52.9867L93.966 53.0531L94.2023 53.0385C94.2836 53.09 94.3723 53.1049 94.4756 53.0975L94.6824 52.9941L94.6898 53.0754C93.5303 53.3633 93.5377 53.3117 92.74 53.4445C92.6514 53.3855 92.585 53.3561 92.5406 53.3633L92.5258 53.3781C92.4373 53.3707 92.3855 53.3117 92.3781 53.2156L92.7918 53.1639C92.8213 53.1639 92.8434 53.1936 93.0723 53.2379C93.4047 53.0754 93.4195 53.0088 93.5967 52.9941L93.582 52.8094C92.4445 53.0311 92.9025 52.8832 91.4771 53.0088L91.4105 53.0162L91.3959 52.8316C93.2275 52.61 92.6145 52.7355 93.2422 52.5584C93.2496 52.6248 93.2719 52.6543 93.3088 52.6543C93.3761 52.5856 93.4644 52.5414 93.5598 52.5287L93.6854 52.5215C94.3279 52.4697 94.5422 52.5953 95.8125 52.2408L95.8197 52.3221L96.0266 52.2186L96.2186 52.2039C96.2039 52.0191 96.4846 51.9896 96.5805 51.9822L96.5658 51.7828C94.3354 52.2334 93.7518 52.1078 93.1314 52.2852L93.124 52.2039C92.5406 52.3072 92.5186 52.2629 92.3707 52.2703C92.3264 52.2777 92.26 52.3146 92.1861 52.3885C92.1787 52.3221 92.1566 52.2924 92.1123 52.2924C92.09 52.2924 92.0828 52.2998 92.0754 52.2998L90.1846 52.61C90.1773 52.5584 90.1551 52.5287 90.1107 52.5361C89.1285 52.743 89.3943 52.7799 88.0797 52.898C88.0207 52.9055 87.9395 52.935 87.8361 53.0014C87.8287 52.9498 87.799 52.9203 87.7326 52.9275L86.9275 52.9941L86.3885 53.127C86.3811 53.0754 86.3516 53.0457 86.2852 53.0531C85.9822 53.1344 85.7164 53.1861 85.5021 53.2008H85.4875C85.3545 53.2156 85.5539 53.1639 85.4506 53.1197L85.2881 53.2156C85.0518 53.2379 85.1773 53.2008 84.3648 53.2082C82.9395 53.3855 83.0945 53.4076 82.9395 53.415L82.4076 53.3781C82.415 53.4299 82.3855 53.4668 82.3264 53.4668C81.7209 53.3855 81.4107 53.2895 81.4033 53.1787C81.4846 52.6027 81.6248 52.3072 81.8242 52.2924L81.9277 52.2852L81.8391 52.4771L81.9424 52.4697C82.1344 52.3662 82.223 52.2703 82.2156 52.1816L82.201 51.9822L82.0088 51.9971L81.9941 51.8123C81.9793 51.6721 82.0016 51.5465 82.0531 51.4432L82.4889 50.7414L82.5037 50.9262L82.7105 50.9113L82.6957 50.7268L82.5775 50.5568C82.7326 50.4238 82.8508 50.35 82.9469 50.3426L82.9395 50.2467L82.6588 50.2687L82.6367 49.9881C83.198 48.8213 83.4639 48.1418 83.449 47.9498L83.6484 48.0311C83.774 48.0236 83.833 47.9498 83.8258 47.8168L83.6336 47.8316L83.6264 47.7504C83.6127 47.6155 83.6383 47.4796 83.7002 47.359C84.0029 47.0414 84.1434 46.7238 84.1137 46.3914C84.1728 46.384 84.2023 46.4137 84.2098 46.4801C84.4684 46.3324 84.6678 45.9408 84.8154 45.291C85.2732 44.4639 85.9232 42.8094 86.7725 40.3354C88.3975 35.9631 88.3309 35.4979 88.5598 34.4639L88.3678 34.4785C88.3826 34.6115 88.3531 34.7371 88.2939 34.8553C88.1609 34.8035 88.0576 34.774 87.9838 34.7814L87.9764 34.7002C87.9469 34.3234 88.102 33.873 88.4564 33.3412L88.5451 33.3338L88.7076 33.9689L88.8996 33.9543C88.8922 33.91 88.9439 33.6588 89.0473 33.1936C89.0398 33.0975 88.966 33.0385 88.8184 33.0311L88.6338 33.1492C88.6189 33.0162 88.6264 32.6691 88.6484 32.1152L88.5523 32.1227C88.39 31.9602 88.3088 31.8271 88.3014 31.7164L87.2451 31.8197C87.2379 31.7459 87.201 31.6352 87.127 31.4947C87.1197 31.3988 87.3561 31.3027 87.8434 31.2068L88.0576 31.2881L88.257 31.1699C88.2645 31.2363 88.3014 31.2658 88.3752 31.2584L88.5746 31.1402C88.582 31.2068 88.6189 31.2363 88.6928 31.2289L88.7889 31.2215L88.774 31.0074C88.6264 31.0221 88.235 31.0221 87.6145 31L87.415 31.133L87.4076 31.0148C82.452 31.4209 79.6381 31.65 78.966 31.7164C78.8773 31.7238 78.5303 31.7164 77.9174 31.7016C77.9246 31.7828 77.8508 31.8271 77.7031 31.842L77.4889 31.7459L76.7652 31.9307C76.5953 31.9453 76.3072 31.9379 75.9084 31.8936C75.7977 31.9822 75.6647 32.034 75.5022 32.0488C75.4137 32.0561 76.5584 31.9896 77.6219 31.9158C77.5111 32.0045 77.3412 32.0561 77.1049 32.0783C76.9424 32.093 76.8022 32.0709 76.684 32.0045C76.5215 32.0783 75.9971 32.1965 75.1182 32.3736L74.9041 32.2924L71.4477 32.8242C71.3147 32.7578 71.1596 32.7355 70.9822 32.7504C70.7977 32.765 70.4875 32.8316 70.0592 32.9498L68.39 33.6439L68.5154 33.8508C68.5967 33.8434 68.7148 33.799 68.8553 33.7178L69.4461 33.7695L69.3723 34.3234C68.8258 34.5672 68.5082 34.9291 68.4195 35.3869C67.5998 35.7488 67.1936 36.0074 67.1936 36.1625L67.201 36.2584L67.3264 36.2512L67.548 36.133L67.8064 36.4432L67.8434 36.8715C67.8582 37.0045 66.4771 39.9068 63.7148 45.5791C61.3221 51.0443 60.0664 54.0355 59.9482 54.5746C59.1285 54.8035 58.6559 55.1359 58.5154 55.5791C58.5303 55.7193 58.774 55.8154 59.2467 55.8523L59.2687 56.0664L59.0547 56.4209L59.0916 56.8494C59.1137 57.0709 59.7119 57.2408 60.8863 57.359C60.8789 57.2852 60.9158 57.2408 60.9971 57.2334C61.0191 57.4992 60.9453 58.0162 60.7754 58.7844L60.901 58.777C61.3885 58.1123 61.6174 57.6543 61.5953 57.4033L61.6986 57.3959C61.8168 57.3885 61.9424 57.5215 62.09 57.8094C61.9424 57.8686 61.4254 59.0428 60.5391 61.3396L60.6646 61.5465L60.7902 61.5391C61.876 58.7918 62.5555 57.2703 62.8359 56.9822C64.2615 56.8566 66.7281 56.6057 70.2289 56.2289L70.4506 56.0959C70.4578 56.1699 70.5021 56.2068 70.5834 56.1994L70.8125 56.1771L71.034 56.0443C71.0414 56.1182 71.0857 56.1551 71.167 56.1477L73.8184 55.9187C74.5199 55.8596 74.8523 55.6455 74.8227 55.2836C74.8154 55.1875 75.2289 55.0768 76.0635 54.9586C76.1447 54.9512 76.2629 54.9734 76.4254 55.025C76.418 54.9586 76.8391 54.8922 77.6811 54.8184C77.7031 54.3752 77.8434 54.1389 78.0945 54.1166L78.0725 53.9025C77.8361 53.9246 77.5701 53.9838 77.26 54.0871C76.7061 54.0576 76.3516 54.0133 76.2039 53.9615C76.0561 54.0428 75.9453 54.0871 75.8641 54.0945L74.0178 54.1535L73.7961 54.2717C73.7887 54.2053 73.7445 54.1758 73.6633 54.1832L73.5598 54.1904L73.3234 54.3088C73.316 54.2422 73.124 54.1904 72.74 54.1389L72.5037 54.2791L72.0459 54.316L72.0385 54.1979C74.4166 53.9395 75.5908 53.6145 75.5613 53.2305C75.7164 53.2156 75.7977 53.2895 75.8123 53.4445L76.5066 53.2674L76.4846 53.0531L70.7902 53.2082C70.7977 53.282 70.7607 53.3264 70.6795 53.3338L69.9852 53.2748C69.808 53.2895 69.6604 53.3412 69.5422 53.4299L69.2836 53.3338C68.5672 53.393 68.0354 53.4814 67.6809 53.5924C67.1936 53.5555 66.6543 53.5627 66.0561 53.6145L64.7785 53.7252L64.1877 53.6588C64.158 53.282 64.8893 51.4283 66.3959 48.1049C66.8316 46.9822 67.2305 46.2807 67.6145 46.0148C67.6957 46.0074 67.8139 46.0369 67.9764 46.1033L68.8848 45.7932L69.35 45.867C70.133 45.8006 71.0414 45.5791 72.0828 45.1949C72.3412 45.1729 72.5332 45.1877 72.6736 45.2467L73.3678 45.0842L75.4357 44.9068C76.3146 44.833 77.2674 44.641 78.3014 44.3234L78.2791 44.1094C77.8951 44.1463 77.6957 44.0797 77.6811 43.9246C77.6588 43.6367 77.3781 43.5184 76.8391 43.5627L76.8168 43.3486L77.3855 43.1861L78.8773 43.0605L78.8553 42.8465C78.7961 42.8537 78.4934 42.8465 77.932 42.8242L77.91 42.5953L78.4859 42.5436C78.641 42.5289 78.7076 42.4549 78.6928 42.3072C77.9174 42.3293 77.5258 42.2924 77.5186 42.1891C72.1123 42.4549 69.4018 42.5066 69.3871 42.3367C69.3059 42.3441 69.1949 42.3959 69.0473 42.4846L68.907 42.2629C70.3396 39.2201 71.1816 37.6838 71.4254 37.6617C71.4328 37.7799 71.3736 37.9719 71.248 38.2305L71.2555 38.3264L71.4846 38.3043C72.0531 36.9453 72.5332 36.2437 72.932 36.2143C74.6307 36.0664 72.6957 35.9557 76.3295 35.3869C76.4771 35.4535 76.5805 35.483 76.6543 35.4756C78.0797 35.1875 80.0664 34.8848 82.6145 34.5746L82.5996 34.3604L81.2408 34.4859L81.226 34.2717C81.3885 34.257 81.5215 34.2053 81.6322 34.1166L81.6396 34.2348C81.7135 34.2275 81.8168 34.1758 81.9498 34.0871C82.1861 34.065 82.3633 34.0871 82.4889 34.1535C82.9615 34.0281 83.3457 33.9541 83.6264 33.9246L84.4756 33.8434C84.6824 33.7105 84.7785 33.5924 84.7711 33.4814L84.7637 33.3855C84.5494 33.4076 84.3059 33.393 84.0178 33.3412C84.0103 33.223 84.0693 33.1418 84.2098 33.1049L85.7902 32.9572L86.5141 32.7725C86.5215 32.8537 86.5584 32.8832 86.6174 32.8832C86.6912 32.876 86.7947 32.8242 86.9275 32.7355C86.9646 32.743 87.0088 32.743 87.0457 32.7504C86.9498 32.9498 86.8391 33.2379 86.7281 33.6145L86.5215 33.6293C86.5066 33.4889 86.4697 33.3633 86.4033 33.2525L86.2998 33.26C84.3797 38.607 83.5229 41.0961 81.7504 45.2023C81.4254 46.2512 81.1521 46.8346 80.9158 46.9602C80.9232 47.0783 80.9971 47.1373 81.1227 47.1227C81.167 47.6396 81.0488 48.1492 80.7607 48.6514C79.9408 51.0148 79.3943 52.3072 79.1137 52.5436L79.2984 53.6588C79.3057 53.777 79.2467 53.8434 79.1211 53.8582L78.9291 53.873C78.8996 53.5627 78.7887 53.415 78.5895 53.4373L78.4859 53.4445C78.2348 53.8359 78.0428 54.2865 77.9174 54.8109L78.1094 54.7961C78.3678 54.6264 78.4859 54.427 78.4639 54.1979L78.8478 54.1609L79.0693 54.2422C78.8922 54.5228 78.8109 54.7445 78.8258 54.9143L78.9291 55.0916L78.6779 55.6824L78.6853 55.7785C78.907 55.7562 79.1506 55.8301 79.4092 55.9852C79.5863 55.9705 79.7785 55.8893 79.9926 55.7488C80.2143 55.7268 81.0414 55.7193 82.4668 55.7193L83.1832 55.4756C84.0547 55.4682 84.1949 55.4904 84.9482 55.4238L85.2584 55.3943L85.4209 55.2836L85.4283 55.3797C86.2186 55.3131 86.2703 55.3648 86.8906 55.4387L86.898 55.5348L86.4623 55.5717L86.4771 55.7562C86.61 55.7414 86.7281 55.7045 86.8242 55.6232C86.935 55.616 87.0014 55.675 87.0088 55.808C86.8316 55.8227 86.6322 55.867 86.4105 55.9408L86.2186 55.8744C85.9158 55.9557 85.9822 55.9777 85.7754 55.9926L85.4727 55.9336C85.4801 55.9852 85.4506 56.0221 85.3988 56.0221C85.4063 56.1402 85.4727 56.1994 85.5834 56.192L85.8936 56.1625L87.5111 56.0221L88.124 55.8893C88.1314 55.9408 88.1535 55.9705 88.2053 55.9631L88.5008 55.8523L89.0547 55.808C89.483 55.7711 89.4756 55.7414 90.4063 55.5937C90.3988 55.5348 90.4209 55.5125 90.4652 55.5051L90.4727 55.5863C91.9867 55.3279 92.0826 55.3131 92.3264 55.2318L92.3486 55.2762C92.7252 55.1875 92.5111 55.2098 92.6145 55.1359C92.6219 55.2023 92.6439 55.2318 92.6809 55.2318L92.9469 55.2098L92.932 55.0103L92.393 55.0029L92.3855 54.9881C92.3633 54.9955 92.3486 54.9955 92.3264 55.0029H92.2525V55.0178C91.8906 55.0916 91.8832 55.0398 91.6469 55.0621L90.2953 55.1359L90.2881 55.0398L91.0414 54.9365L91.3146 54.9143L91.4697 54.8035L91.4771 54.8996C92.5406 54.8109 92.9172 55.0768 97.8359 54.0281C98.102 54.0059 98.0797 53.7844 98.2496 53.3264C98.1595 53.3326 98.0697 53.312 97.9912 53.2674C97.585 53.4225 97.3707 53.3486 96.5879 53.4742C96.5215 53.4816 96.4697 53.4225 96.4475 53.3043L96.44 53.223L97.1934 53.2451C97.3338 53.2305 97.607 53.2082 98.0133 52.9793C98.0133 53.0457 97.8582 53.0826 97.9467 53.0754H97.9469V53.0754ZM61.5805 53.6588L61.2334 53.6883C61.2186 53.548 61.4033 53.0162 61.7873 52.1078L62.0162 52.0857C62.0236 52.2998 61.8832 52.8242 61.5805 53.6588V53.6588ZM62.0016 51.9748L61.9941 51.8789C61.9867 51.7607 62.0605 51.6795 62.223 51.6426L62.2305 51.7385C62.2379 51.8789 62.1639 51.9602 62.0016 51.9748ZM66.6174 55.542L66.6248 55.6381L66.0488 55.6898L66.0414 55.5937L66.6174 55.542ZM65.9232 55.483C65.9307 55.6012 65.7533 55.7342 65.3693 55.867L64.6602 55.8154L64.4313 55.8375L64.4092 55.6232L65.9232 55.483ZM70.5908 33.9984L70.2438 34.0281L70.2363 33.91C70.2289 33.7918 70.2955 33.7105 70.4432 33.6736L70.5688 33.6662L70.8051 33.7621C70.8123 33.9025 70.7459 33.9838 70.5908 33.9984ZM75.8715 32.9645L75.9822 32.9572L75.9971 33.1713L75.6795 33.2008C75.6721 33.0826 75.7311 33.0016 75.8715 32.9645V32.9645ZM74.542 33.4299L74.0178 33.3707L74.0104 33.2748C74.6973 33.2156 74.9262 33.1418 75.3471 33.0236C75.3545 33.1049 75.4283 33.1344 75.5613 33.1197L75.576 33.3338L75.3693 33.3561C75.2068 33.3707 75.0664 33.3486 74.9482 33.282C74.8227 33.3633 74.6898 33.415 74.542 33.4299V33.4299ZM75.1994 35.3428L75.192 35.2467L76.0414 35.1654L76.0488 35.2615L75.1994 35.3428ZM76.1078 34.6041L76.1004 34.4859L76.5141 34.449L76.5215 34.5672L76.1078 34.6041ZM76.2039 33.1566L76.093 33.1639L76.1891 32.935L77.1344 32.8463L77.1418 32.9645C76.898 32.9867 76.5805 33.0531 76.2039 33.1566ZM76.684 35.1949L76.6691 34.9809L77.0828 34.9439C77.223 34.9291 77.2969 34.9955 77.3043 35.1434L76.684 35.1949ZM79.1875 31.7828L78.6559 31.9307L78.5598 31.9379C78.3088 31.9602 77.9838 31.9527 77.5996 31.9158C78.2865 31.8715 78.9439 31.8197 79.1875 31.7828V31.7828ZM78.6189 34.1463L78.6264 34.2422L77.8951 34.3088L77.8877 34.2127L78.6189 34.1463ZM79.8154 34.7148C79.808 34.6264 79.6676 34.5672 79.3797 34.5377L78.6484 34.7445L78.0871 34.7666C77.9615 34.6779 77.8951 34.6189 77.8877 34.5746L78.5377 34.6115L80 34.3752L80.7459 34.4047L80.7533 34.5229C80.384 34.5598 80.0738 34.6264 79.8154 34.7148V34.7148ZM87.3412 32.7725C87.4299 32.7799 87.4889 32.7799 87.5111 32.7799C87.7695 32.5287 88.0576 32.3293 88.39 32.1891C88.124 33.3561 87.7105 34.2201 87.1418 34.7814L86.7281 34.5303C87.0754 33.6514 87.2822 33.068 87.3412 32.7725ZM86.0709 34.9512L86.1742 34.9439C86.034 35.2098 85.9084 35.35 85.8051 35.3574L85.7828 35.0768C85.8494 35.0768 85.9453 35.0324 86.0709 34.9512V34.9512ZM85.2512 36.9084C85.4506 36.1107 85.6426 35.6604 85.8197 35.5422L85.8271 35.6381C85.7238 36.3766 85.5613 36.7682 85.3471 36.7977L85.384 37.2629C85.2068 37.5141 85.1256 37.7061 85.1328 37.8537L85.0295 37.8611L84.9705 37.2186C85.0887 37.2039 85.1846 37.1004 85.2512 36.9084V36.9084ZM84.9336 37.9719C84.9408 38.0826 84.867 38.3412 84.7193 38.74L84.616 38.7475L84.5937 38.4668C84.7342 38.1418 84.8523 37.9793 84.9334 37.9719H84.9336ZM78.9734 55.2687L78.966 55.1875L79.158 55.1728L79.1803 55.4535C79.0768 55.4609 79.0029 55.4018 78.9734 55.2687V55.2687ZM87.4889 55.4904C87.4814 55.4238 87.452 55.3943 87.3855 55.4018L86.9055 55.4461L86.898 55.35H86.9424L88.0797 55.2541L88.0871 55.35C87.7549 55.3648 87.5555 55.4166 87.4889 55.4904V55.4904ZM86.9203 55.2541C86.9647 55.2762 86.9424 55.2984 86.9203 55.3131C86.898 55.3057 86.8686 55.2836 86.9203 55.2541ZM86.9793 53.9246L86.3441 53.9764L86.3367 53.8803L86.9129 53.8287L87.415 53.7031C87.4225 53.7621 87.452 53.7844 87.5186 53.777C88.1168 53.6736 88.0576 53.6439 88.3457 53.6219C88.4416 53.6145 88.5008 53.6736 88.5082 53.7918L86.9793 53.9246V53.9246ZM89.2023 53.7326C88.8479 53.6957 88.8258 53.6662 88.5746 53.6883L88.5672 53.607L89.1359 53.5555L89.1434 53.6367C89.0842 53.6439 89.2984 53.6588 89.2023 53.7326ZM89.2467 53.6293L89.2393 53.548L89.5494 53.5184L89.5568 53.5996L89.2467 53.6293ZM89.9336 53.5701L89.9262 53.4889C89.9779 53.4816 90.0518 53.4445 90.1477 53.3707C90.3027 53.3561 90.384 53.4594 90.3988 53.5775L89.9336 53.5701ZM90.8125 53.4594L90.8051 53.3633L91.1816 53.3338L91.1891 53.4299L90.8125 53.4594ZM91.3367 53.415C91.3295 53.3043 91.3736 53.2379 91.4697 53.223L91.5953 53.3855C91.5879 53.3338 91.61 53.3043 91.6543 53.2969L91.7504 53.4742L91.3367 53.415ZM98.6041 52.5584L98.6115 52.551V52.5436C98.6115 52.5436 98.6041 52.551 98.6041 52.5584ZM98.7371 52.4623C98.7961 52.4254 98.8258 52.3885 98.6854 52.3664C98.6189 52.4402 98.7592 52.4623 98.6115 52.4697L98.6189 52.5361C98.6336 52.5215 98.6707 52.4992 98.7002 52.4771L98.6189 52.5436V52.551L98.4639 52.7504L98.774 52.6396H98.8109L98.7961 52.4549L98.7371 52.4623V52.4623ZM99.2762 52.8834L99.2172 52.8906L99.2318 53.0754L99.6676 53.0385C99.6604 52.9203 99.3723 52.8834 99.2762 52.8834V52.8834Z" fill="#F9DC3E"/>
</svg>
