<svg width="100" height="100" viewBox="0 0 100 100" fill="none" xmlns="http://www.w3.org/2000/svg">
<path d="M4.77921 63.2462C3.60024 58.9526 3 54.493 3 50.0014C3 29.497 15.8776 10.7487 35.0467 3.35535L37.56 9.85997C21.0597 16.2254 9.97739 32.3557 9.97739 50.0014C9.97739 53.872 10.4918 57.7051 11.5047 61.3991L4.77921 63.2462Z" fill="#69D3A7"/>
<path d="M91.4391 30.193C83.9796 15.8721 69.2958 6.97441 53.1279 6.97441C47.3991 6.97441 41.8312 8.07724 36.5902 10.2454L33.916 3.80505C40.0091 1.28352 46.4721 -0.00134277 53.1279 -0.00134277C71.911 -0.00134277 88.9633 10.3311 97.6287 26.9701L91.4391 30.193Z" fill="url(#paint0_linear_902_73)"/>
<path d="M38.1602 39.6849C42.2061 39.6849 45.5019 41.8424 47.1954 45.6059L47.3294 45.9005L54.1244 43.593L53.9798 43.2451C51.3486 36.8368 45.2875 32.8536 38.1602 32.8536C33.1494 32.8536 29.0767 34.4599 25.7113 37.7576C22.3672 41.0341 20.6738 45.1563 20.6738 50.012C20.6738 54.8249 22.3672 58.9257 25.7113 62.2022C29.0767 65.5001 33.1494 67.1061 38.1602 67.1061C45.2875 67.1061 51.3486 63.123 53.9798 56.7201L54.1244 56.3722L47.3186 54.0593L47.19 54.3645C45.6734 58.0638 42.2973 60.2749 38.1602 60.2749C35.3413 60.2749 32.9619 59.2899 31.0755 57.3518C29.1677 55.387 28.2032 52.9191 28.2032 50.0174C28.2032 47.0943 29.1463 44.6745 31.0755 42.6186C32.9565 40.6701 35.3413 39.6849 38.1602 39.6849Z" fill="black"/>
<path d="M80.721 33.4855L71.0375 57.9888L61.2896 33.4855H53.3154L66.9861 66.9294L57.2596 90.5173L64.2317 91.904L88.2558 33.4855H80.721Z" fill="black"/>
<path d="M58.5071 87.4766L56.8083 91.5882C56.4706 92.402 55.6989 92.9532 54.8308 92.9907C54.2575 93.0122 53.6787 93.0282 53.0946 93.0282C33.1002 93.0176 15.4103 78.9216 11.0266 59.4987L4.2207 61.0351C6.68048 71.9297 12.854 81.8178 21.6052 88.8847C30.4583 96.0316 41.6102 99.9772 53.0196 99.9986C53.0356 99.9986 53.1212 99.9986 53.1212 99.9986C53.7912 99.9986 54.4556 99.9826 55.1202 99.9559C58.7 99.8059 61.8994 97.5628 63.2658 94.2382L65.4844 88.8632L58.5071 87.4766Z" fill="url(#paint1_linear_902_73)"/>
<defs>
<linearGradient id="paint0_linear_902_73" x1="47.9118" y1="-3.2293" x2="85.9637" y2="37.4409" gradientUnits="userSpaceOnUse">
<stop offset="0.0939" stop-color="#58D09E"/>
<stop offset="0.9883" stop-color="#58D09E" stop-opacity="0"/>
</linearGradient>
<linearGradient id="paint1_linear_902_73" x1="2.4658" y1="72.7518" x2="75.1625" y2="92.1012" gradientUnits="userSpaceOnUse">
<stop offset="0.0774" stop-color="#58D09E"/>
<stop offset="0.7617" stop-color="#1B1E2E"/>
</linearGradient>
</defs>
</svg>
