<svg width="100" height="100" viewBox="0 0 100 100" fill="none" xmlns="http://www.w3.org/2000/svg">
<path d="M98.4716 59.9022C97.8902 58.1365 96.3673 56.9067 94.3978 56.6116C93.4691 56.4726 92.4055 56.5319 91.147 56.792C88.9532 57.2459 87.3257 57.4187 86.138 57.4521C90.6212 49.8619 94.2667 41.2063 96.3654 33.0585C99.759 19.8837 97.9455 13.8818 95.8264 11.167C90.2183 3.98123 82.0361 0.120977 72.1652 0.00285975C66.8994 -0.0617057 62.2768 0.980837 59.8653 1.73056C57.62 1.33329 55.2059 1.11149 52.6728 1.07047C47.9244 0.99451 43.729 2.0325 40.1442 4.16582C38.1595 3.49281 34.9742 2.54408 31.2958 1.93869C22.6444 0.514446 15.6716 1.62421 10.5714 5.23722C4.3955 9.61172 1.53253 17.2122 2.06202 27.8276C2.23018 31.1979 4.1103 41.4524 7.0706 51.1775C8.77195 56.7673 10.5862 61.4092 12.4629 64.9755C15.1243 70.0325 17.9722 73.0105 21.1692 74.08C22.961 74.6786 26.2168 75.0978 29.6411 72.238C30.0751 72.7651 30.6542 73.2889 31.4227 73.7754C32.3987 74.3926 33.5922 74.8969 34.7841 75.1958C39.0795 76.2726 43.1029 76.0033 46.5356 74.494C46.5568 75.1062 46.573 75.6911 46.5867 76.1962C46.6094 77.0154 46.6321 77.8187 46.6621 78.57C46.8654 83.6494 47.2101 87.5989 48.2312 90.3623C48.2873 90.5142 48.3626 90.7459 48.4422 90.9916C48.9516 92.5556 49.8034 95.1739 51.9706 97.2244C54.2147 99.3487 56.9292 100 59.4153 100C60.6622 100 61.8518 99.8359 62.8953 99.6118C66.6146 98.8124 70.8388 97.5947 73.8945 93.2316C76.7836 89.107 78.188 82.8947 78.4422 73.1062C78.4751 72.8293 78.5054 72.565 78.5346 72.3132L78.5952 71.7959L79.2758 71.8559L79.4512 71.8677C83.2394 72.0409 87.8715 71.2353 90.7163 69.9102C92.9642 68.8642 100.168 65.0507 98.4716 59.9022" fill="black"/>
<path d="M91.9943 60.9034C80.7303 63.2335 79.9558 59.4093 79.9558 59.4093C91.8485 41.7134 96.8204 19.251 92.5303 13.7535C80.8254 -1.24285 60.5641 5.84948 60.2259 6.03331L60.1172 6.05306C57.8917 5.5897 55.4014 5.31397 52.6021 5.26801C47.5056 5.18446 43.6393 6.60794 40.7055 8.83887C40.7055 8.83887 4.56141 -6.09249 6.24268 27.6176C6.60022 34.7889 16.4932 81.8804 28.2927 67.6566C32.6056 62.4553 36.773 58.0576 36.773 58.0576C38.8424 59.4363 41.3202 60.1396 43.9177 59.8871L44.1196 59.7154C44.0567 60.3611 44.0855 60.9927 44.2002 61.7405C41.1604 65.1461 42.0539 65.7439 35.9772 66.9984C29.8282 68.2692 33.4403 70.5313 35.7988 71.123C38.658 71.8397 45.2725 72.8553 49.7417 66.5814L49.5637 67.2973C50.7545 68.254 51.5908 73.5195 51.4507 78.2932C51.3105 83.0665 51.217 86.3438 52.1551 88.9036C53.0941 91.4634 54.0292 97.2231 62.0178 95.5068C68.6925 94.0723 72.1516 90.3552 72.633 84.1546C72.9743 79.7467 73.7473 80.3984 73.7958 76.4573L74.4158 74.5917C75.1305 68.6163 74.5294 66.6885 78.6415 67.5852L79.6414 67.6733C82.6676 67.8112 86.6293 67.1849 88.9545 66.1013C93.9608 63.7716 96.9302 59.8814 91.9936 60.9034H91.9943" fill="#336791"/>
<path d="M42.8211 30.8246C41.806 30.6829 40.8868 30.8139 40.4217 31.1671C40.1604 31.3658 40.0793 31.5959 40.0574 31.7543C39.999 32.174 40.2922 32.6381 40.4725 32.8774C40.9823 33.5549 41.7269 34.0205 42.4639 34.1231C42.5707 34.1383 42.6772 34.1451 42.7828 34.1451C44.0119 34.1451 45.1296 33.1854 45.228 32.4771C45.3511 31.5899 44.0668 30.9985 42.8211 30.825V30.8246ZM76.448 30.8527C76.3511 30.1573 75.1171 29.959 73.946 30.1223C72.7764 30.2856 71.6425 30.8151 71.7371 31.512C71.8129 32.054 72.7889 32.9791 73.9441 32.9791C74.0418 32.9791 74.1403 32.9727 74.2395 32.9586C75.0107 32.8515 75.5765 32.3605 75.8454 32.0775C76.2545 31.6461 76.4916 31.1652 76.448 30.8527" fill="white"/>
<path d="M95.7427 60.6387C95.3132 59.3364 93.9307 58.9174 91.634 59.3929C84.8146 60.8043 82.3724 59.8267 81.5706 59.2346C86.8712 51.1373 91.2318 41.3491 93.5842 32.2169C94.6985 27.891 95.3139 23.8735 95.3643 20.5989C95.42 17.0048 94.8094 14.3637 93.5505 12.7504C88.4745 6.24631 81.0244 2.75749 72.0064 2.66178C65.8066 2.5919 60.5685 4.18287 59.5531 4.63027C57.4146 4.09703 55.0834 3.76965 52.5454 3.72787C47.8913 3.65229 43.8682 4.76966 40.5375 7.0473C39.0907 6.50723 35.3517 5.2201 30.779 4.48139C22.8737 3.20527 16.5918 4.17223 12.1089 7.35684C6.7598 11.1571 4.29034 17.9502 4.76871 27.5469C4.92967 30.7756 6.76434 40.708 9.65951 50.2201C13.4705 62.7397 17.6133 69.8271 21.9719 71.2852C22.4821 71.4557 23.0703 71.575 23.7191 71.575C25.3091 71.575 27.2585 70.8564 29.2867 68.4113C31.7606 65.4354 34.3196 62.5317 36.9606 59.704C38.6741 60.6262 40.5565 61.1412 42.4816 61.1928C42.4854 61.2433 42.4904 61.2938 42.4949 61.344C42.1635 61.7402 41.839 62.1423 41.5215 62.5498C40.1876 64.2479 39.9099 64.6015 35.616 65.4879C34.3946 65.7409 31.1506 66.4112 31.1028 68.6915C31.0513 71.183 34.9377 72.2294 35.3805 72.3403C36.9235 72.7277 38.4101 72.9187 39.8277 72.9187C43.2755 72.9187 46.3097 71.7823 48.7344 69.5837C48.6598 78.4656 49.0291 87.2177 50.0926 89.8843C50.9638 92.0673 53.0916 97.4024 59.8129 97.402C60.7992 97.402 61.8847 97.2869 63.0789 97.0302C70.0937 95.5224 73.14 92.4133 74.3183 85.5591C74.9489 81.896 76.031 73.1489 76.54 68.4568C77.6142 68.7929 78.997 68.9468 80.4919 68.9464C83.6098 68.9464 87.2075 68.2821 89.4637 67.232C91.9983 66.0516 96.5721 63.1552 95.7427 60.6387V60.6387ZM79.0375 28.9332C79.0144 30.3183 78.8243 31.5758 78.6228 32.8884C78.4057 34.3001 78.1815 35.7596 78.1251 37.5314C78.0694 39.2557 78.2842 41.0483 78.4917 42.7821C78.9114 46.2838 79.342 49.8889 77.6751 53.4461C77.3982 52.9541 77.1516 52.4456 76.9366 51.9235C76.7294 51.4199 76.2794 50.6109 75.6564 49.4912C73.2328 45.1327 67.5572 34.926 70.4626 30.7611C71.328 29.5215 73.5244 28.2469 79.0375 28.9332V28.9332ZM72.3548 5.46659C80.4351 5.64547 86.8269 8.67664 91.3522 14.4754C94.8231 18.9232 91.0011 39.1615 79.9367 56.6212C79.8254 56.4793 79.7135 56.3379 79.6011 56.197L79.4609 56.0215C82.3201 51.2865 81.7611 46.6017 81.2634 42.4483C81.0589 40.7437 80.8657 39.1338 80.915 37.6214C80.9657 36.0187 81.1771 34.6438 81.3816 33.3145C81.6327 31.6764 81.8884 29.9814 81.8179 27.9833C81.8706 27.7736 81.8918 27.526 81.8641 27.232C81.6842 25.316 79.5026 19.5814 75.0561 14.3911C72.6237 11.5521 69.0767 8.37508 64.2337 6.23226C66.3168 5.79929 69.1654 5.39556 72.3548 5.46659V5.46659ZM27.1404 66.6216C24.9057 69.3159 23.3627 68.7994 22.8552 68.63C19.5487 67.524 15.7119 60.516 12.3293 49.4031C9.40234 39.7874 7.6919 30.1181 7.55631 27.4067C7.12908 18.8317 9.20198 12.8556 13.7178 9.64398C21.0671 4.41796 33.15 7.54598 38.0052 9.13239C37.9355 9.20152 37.8628 9.26608 37.7939 9.33635C29.8265 17.4048 30.0155 31.1899 30.0351 32.0327C30.0344 32.3578 30.0617 32.8181 30.0988 33.4512C30.2359 35.7699 30.4912 40.0852 29.8094 44.972C29.1761 49.5133 30.5722 53.958 33.639 57.167C33.9537 57.4956 34.2845 57.8085 34.6301 58.1043C33.2651 59.5703 30.2984 62.8123 27.1404 66.6216V66.6216ZM35.6543 55.2304C33.1826 52.6439 32.0599 49.0465 32.5739 45.3594C33.2935 40.1972 33.028 35.7012 32.8852 33.2856C32.8652 32.9476 32.8474 32.6514 32.8371 32.4178C34.001 31.3829 39.3948 28.485 43.2414 29.3688C44.9965 29.7718 46.0661 30.9704 46.5108 33.0319C48.8121 43.7054 46.8153 48.154 45.2109 51.729C44.8803 52.4654 44.5678 53.1616 44.3012 53.8817L44.0944 54.4385C43.5709 55.846 43.0839 57.1548 42.782 58.3975C40.1542 58.3899 37.598 57.2642 35.6543 55.23V55.2304ZM36.0577 69.6247C35.2903 69.4325 34.6002 69.0987 34.1953 68.8218C34.5336 68.6623 35.1354 68.4451 36.1792 68.2293C41.2306 67.1868 42.0109 66.4507 43.7145 64.2817C44.105 63.7842 44.5477 63.2206 45.1609 62.5339L45.1617 62.5331C46.0748 61.5077 46.4926 61.6816 47.2501 61.9968C47.8641 62.2513 48.4621 63.0231 48.7045 63.8723C48.8193 64.2734 48.9481 65.0345 48.5265 65.627C44.9678 70.6236 39.7819 70.5594 36.0577 69.6247V69.6247ZM62.4941 94.2933C56.3144 95.6211 54.1263 92.4593 52.6844 88.8448C51.7538 86.5113 51.2963 75.9886 51.6209 64.3679C51.6251 64.2133 51.6031 64.0641 51.5607 63.9236C51.5227 63.6461 51.465 63.3717 51.388 63.1024C50.9054 61.4116 49.7294 59.9972 48.3186 59.4108C47.758 59.178 46.7293 58.7507 45.4931 59.0678C45.7567 57.9786 46.2139 56.7484 46.7096 55.4165L46.9176 54.8563C47.1516 54.2247 47.4456 53.5703 47.7561 52.8775C49.4351 49.1373 51.7345 44.0142 49.2389 32.4406C48.3042 28.1056 45.1825 25.9886 40.4504 26.4804C37.6136 26.7748 35.018 27.9225 33.7234 28.5807C33.445 28.722 33.1905 28.8587 32.9527 28.9916C33.314 24.624 34.679 16.4614 39.7853 11.2969C43.0005 8.04579 47.2823 6.44001 52.4992 6.5266C62.7785 6.69523 69.3703 11.9851 73.0904 16.3934C76.2961 20.1917 78.0319 24.0182 78.7247 26.082C73.5149 25.5507 69.9717 26.5818 68.1757 29.1569C64.2681 34.7581 70.3134 45.6295 73.2188 50.8543C73.7517 51.8118 74.2115 52.6394 74.3561 52.9911C75.3023 55.2904 76.5271 56.8255 77.4214 57.9459C77.6956 58.2893 77.9615 58.6223 78.1637 58.9133C76.5859 59.3694 73.7517 60.4233 74.01 65.6915C73.8017 68.3349 72.3204 80.711 71.5678 85.0836C70.5743 90.8603 68.4545 93.0119 62.4941 94.2937V94.2933ZM88.2885 64.6934C86.675 65.4443 83.9749 66.0075 81.41 66.1287C78.5769 66.2616 77.1347 65.8104 76.7953 65.5328C76.6362 62.2498 77.8547 61.9068 79.1443 61.5437C79.3469 61.4868 79.5446 61.4309 79.7355 61.3641C79.8541 61.4609 79.984 61.557 80.1264 61.6512C82.4035 63.1583 86.4648 63.3208 92.1987 62.134L92.2616 62.1214C91.4882 62.8465 90.1648 63.8195 88.2885 64.6934Z" fill="white"/>
</svg>
