<svg width="100" height="100" viewBox="0 0 100 100" fill="none" xmlns="http://www.w3.org/2000/svg">
<path fill-rule="evenodd" clip-rule="evenodd" d="M61.7111 60.6581L59.7929 63.9888C59.2151 64.9922 58.1454 65.6106 56.9875 65.6106H42.2933C41.1354 65.6106 40.0657 64.9922 39.4878 63.9888L37.5695 60.6581H61.7111ZM67.081 51.3338L63.6988 57.2064H35.5817L32.1997 51.3338H67.081ZM63.8231 42.2158L67.0864 47.8823H32.1943L35.4576 42.2158H63.8231ZM56.9875 33.5962C58.1454 33.5962 59.2151 34.2146 59.7929 35.2179L61.8353 38.7642H37.4454L39.4878 35.2179C40.0657 34.2146 41.1354 33.5962 42.2933 33.5962H56.9875Z" fill="#00435B"/>
<path d="M20.9074 32.0507C19.2796 24.1577 18.9303 18.1039 19.9824 13.708C20.6082 11.0936 21.7523 8.96075 23.4919 7.42195C25.3285 5.79738 27.6505 5.00021 30.2596 5.00021C34.5638 5.00021 39.0886 6.96297 43.9241 10.6917C45.8964 12.2126 47.9434 14.0458 50.0693 16.1923C50.2385 15.9744 50.4298 15.769 50.6429 15.5791C56.6531 10.2231 61.7133 6.89532 66.0413 5.61224C68.6147 4.84932 71.0308 4.77664 73.231 5.51708C75.5535 6.29866 77.404 7.9143 78.7096 10.1773C80.8644 13.9121 81.4326 18.8196 80.6293 24.8791C80.3018 27.349 79.742 30.0395 78.9511 32.9546C79.2495 32.9907 79.5486 33.0568 79.8448 33.155C87.4705 35.682 92.8703 38.3996 96.1395 41.5052C98.0846 43.353 99.3547 45.4102 99.8139 47.6873C100.299 50.0908 99.826 52.5016 98.5219 54.7629C96.3712 58.4923 92.4167 61.4336 86.7829 63.7634C84.5208 64.6988 81.9614 65.5461 79.1017 66.308C79.2322 66.6026 79.3334 66.9155 79.4011 67.2437C81.0289 75.1367 81.3782 81.1905 80.326 85.5864C79.7003 88.2009 78.5562 90.3337 76.8166 91.8725C74.98 93.4971 72.6579 94.2942 70.0489 94.2942C65.7447 94.2942 61.2199 92.3315 56.3844 88.6027C54.3911 87.0657 52.3215 85.2096 50.1713 83.0335C49.95 83.3796 49.6784 83.7013 49.3571 83.9876C43.3469 89.3436 38.2867 92.6713 33.9587 93.9544C31.3853 94.7173 28.9692 94.79 26.769 94.0496C24.4465 93.268 22.596 91.6523 21.2904 89.3893C19.1356 85.6546 18.5674 80.747 19.3707 74.6875C19.71 72.1283 20.2987 69.3323 21.1356 66.295C20.8085 66.2618 20.48 66.1927 20.1552 66.085C12.5295 63.558 7.12969 60.8404 3.86052 57.7348C1.91544 55.887 0.645278 53.8298 0.186124 51.5527C-0.298514 49.1492 0.174045 46.7384 1.47813 44.4771C3.62884 40.7477 7.58335 37.8064 13.2171 35.4766C15.5466 34.5133 18.1914 33.6435 21.1547 32.8641C21.0491 32.6056 20.9658 32.3339 20.9074 32.0507Z" fill="#002B3B"/>
<path fill-rule="evenodd" clip-rule="evenodd" d="M40.4916 29.5362C44.4445 29.2216 48.5189 29.0827 52.7147 29.1194C53.5093 29.1264 54.1591 28.4879 54.1661 27.6932C54.169 27.3586 54.0552 27.0333 53.8442 26.7735C44.2942 15.0151 36.4306 9.13586 30.2533 9.13586C23.8759 9.13586 22.0565 16.1657 24.7952 30.2255C24.9453 30.9961 25.6855 31.5041 26.4586 31.3671C31.3343 30.503 36.012 29.8927 40.4916 29.5362Z" fill="#FF4154"/>
<path fill-rule="evenodd" clip-rule="evenodd" d="M62.6817 31.4716C64.9646 34.7611 67.1556 38.2447 69.2547 41.9223C69.6486 42.6125 70.5274 42.8526 71.2175 42.4587C71.507 42.2935 71.73 42.033 71.8488 41.7217C77.2508 27.5523 78.3861 17.7805 75.2547 12.4063C72.0233 6.86056 64.9824 8.77814 54.1321 18.1591C53.5355 18.6749 53.4653 19.5748 53.9747 20.1768C57.1985 23.9877 60.1008 27.7526 62.6817 31.4716Z" fill="#FF4154"/>
<path fill-rule="evenodd" clip-rule="evenodd" d="M72.2631 51.2668C70.5546 54.8576 68.6342 58.4666 66.5019 62.0936C66.0992 62.7786 66.3281 63.6604 67.0131 64.0632C67.3031 64.2337 67.6438 64.2972 67.9757 64.2426C82.8629 61.7948 91.8526 57.8881 94.9449 52.5222C98.1386 46.9805 93.0027 41.9011 79.5372 37.2842C78.7954 37.0299 77.9866 37.4164 77.7184 38.1533C76.0193 42.8232 74.2008 47.1944 72.2631 51.2668Z" fill="#FF4154"/>
<path fill-rule="evenodd" clip-rule="evenodd" d="M60.048 69.8506C56.0951 70.1652 52.0207 70.3042 47.8249 70.2674C47.0303 70.2605 46.3804 70.899 46.3735 71.6936C46.3705 72.0283 46.4844 72.3535 46.6954 72.6133C56.2453 84.3718 64.1089 90.251 70.2862 90.251C76.6637 90.251 78.4831 83.2211 75.7444 69.1614C75.5943 68.3907 74.8541 67.8827 74.081 68.0197C69.2052 68.8838 64.5276 69.4941 60.048 69.8506Z" fill="#FF4154"/>
<path fill-rule="evenodd" clip-rule="evenodd" d="M37.3181 68.0951C35.0352 64.8056 32.8443 61.322 30.7452 57.6443C30.3512 56.9542 29.4724 56.714 28.7823 57.1079C28.4929 57.2731 28.2698 57.5336 28.1511 57.845C22.749 72.0143 21.6137 81.7861 24.7451 87.1603C27.9765 92.7061 35.0174 90.7885 45.8677 81.4075C46.4643 80.8918 46.5345 79.9919 46.0252 79.3898C42.8014 75.579 39.899 71.8141 37.3181 68.0951Z" fill="#FF4154"/>
<path fill-rule="evenodd" clip-rule="evenodd" d="M27.7369 47.7603C29.4455 44.1695 31.3659 40.5606 33.4981 36.9336C33.9008 36.2485 33.672 35.3667 32.9869 34.964C32.6969 34.7935 32.3563 34.73 32.0243 34.7846C17.1371 37.2323 8.14742 41.1391 5.05511 46.5049C1.8614 52.0467 6.9973 57.126 20.4628 61.7429C21.2046 61.9973 22.0135 61.6108 22.2816 60.8738C23.9808 56.2039 25.7992 51.8328 27.7369 47.7603Z" fill="#FF4154"/>
<path fill-rule="evenodd" clip-rule="evenodd" d="M43.4745 33.7761H55.8088C57.6126 33.7761 59.2787 34.7409 60.1766 36.3054L66.3698 47.0968C67.2607 48.6492 67.2607 50.5578 66.3698 52.1102L60.1766 62.9015C59.2787 64.466 57.6126 65.4308 55.8088 65.4308H43.4745C41.6706 65.4308 40.0045 64.466 39.1067 62.9015L32.9135 52.1102C32.0225 50.5578 32.0225 48.6492 32.9135 47.0968L39.1067 36.3054C40.0045 34.7409 41.6706 33.7761 43.4745 33.7761ZM53.9289 37.0332C55.7337 37.0332 57.4005 37.999 58.298 39.5648L62.6167 47.0991C63.5059 48.6503 63.5059 50.5566 62.6167 52.1078L58.298 59.6421C57.4005 61.2079 55.7337 62.1737 53.9289 62.1737H45.3543C43.5495 62.1737 41.8827 61.2079 40.9852 59.6421L36.6666 52.1078C35.7774 50.5566 35.7774 48.6503 36.6666 47.0991L40.9852 39.5648C41.8827 37.999 43.5495 37.0332 45.3543 37.0332H53.9289ZM51.9027 40.5956H47.3805C45.5776 40.5956 43.9122 41.5594 43.014 43.1227L40.7319 47.0946C39.8393 48.6481 39.8393 50.5588 40.7319 52.1123L43.014 56.0842C43.9122 57.6475 45.5776 58.6113 47.3805 58.6113H51.9027C53.7057 58.6113 55.3711 57.6475 56.2693 56.0842L58.5514 52.1123C59.444 50.5588 59.444 48.6481 58.5514 47.0946L56.2693 43.1227C55.3711 41.5594 53.7057 40.5956 51.9027 40.5956ZM49.9517 44.0054C51.7533 44.0054 53.4176 44.9678 54.3164 46.5292L54.6399 47.0913C55.535 48.6465 55.535 50.5604 54.6399 52.1156L54.3164 52.6777C53.4176 54.2392 51.7533 55.2016 49.9517 55.2016H49.3316C47.53 55.2016 45.8656 54.2392 44.9669 52.6777L44.6434 52.1156C43.7483 50.5604 43.7483 48.6465 44.6434 47.0913L44.9669 46.5292C45.8656 44.9678 47.53 44.0054 49.3316 44.0054H49.9517ZM49.6424 47.3642C48.8406 47.3642 48.1011 47.791 47.7008 48.4838C47.3005 49.1766 47.3005 50.0303 47.7008 50.7231C48.1011 51.4159 48.8406 51.8427 49.6408 51.8427C50.4427 51.8427 51.1821 51.4159 51.5825 50.7231C51.9828 50.0303 51.9828 49.1766 51.5825 48.4838C51.1821 47.791 50.4427 47.3642 49.6424 47.3642ZM31.4749 49.6035H35.5064Z" fill="#FFD94C"/>
</svg>
