<svg width="100" height="100" viewBox="0 0 100 100" fill="none" xmlns="http://www.w3.org/2000/svg">
<path d="M96.082 72.7652C90.7453 75.5469 63.1 86.9137 57.2145 89.982C51.3289 93.0508 48.0594 93.0211 43.4098 90.7984C38.7605 88.5758 9.34102 76.6922 4.04141 74.159C1.39297 72.8934 0 71.8246 0 70.8152V60.7074C0 60.7074 38.3008 52.3695 44.484 50.1512C50.6668 47.9328 52.8121 47.8527 58.0738 49.7801C63.3363 51.7082 94.7996 57.3848 100 59.2894L99.9977 69.2543C99.9984 70.2535 98.7984 71.3496 96.082 72.7652" fill="#912626"/>
<path d="M96.08 62.7172C90.7437 65.4977 63.0991 76.8648 57.2136 79.9328C51.3284 83.0019 48.0589 82.9719 43.4097 80.7492C38.7601 78.5281 9.34171 66.6426 4.04249 64.1109C-1.25673 61.5777 -1.36767 59.8344 3.8378 57.7961C9.04327 55.757 38.3003 44.2785 44.4843 42.0602C50.6671 39.8426 52.812 39.7618 58.0737 41.6899C63.3359 43.6172 90.8155 54.5551 96.0151 56.4594C101.217 58.366 101.416 59.936 96.08 62.7172" fill="#C6302B"/>
<path d="M96.082 56.4101C90.7453 59.1922 63.1 70.5586 57.2145 73.6281C51.3289 76.6957 48.0594 76.666 43.4098 74.4433C38.7602 72.2218 9.34102 60.3371 4.04141 57.8039C1.39297 56.5383 0 55.4711 0 54.4613V44.3523C0 44.3523 38.3008 36.0148 44.484 33.7965C50.6668 31.5781 52.8121 31.4976 58.0738 33.4254C63.3367 35.3531 94.8 41.0285 100 42.9336L99.9977 52.8996C99.9984 53.8984 98.7984 54.9945 96.082 56.4101Z" fill="#912626"/>
<path d="M96.08 46.3621C90.7437 49.1433 63.0991 60.5097 57.2136 63.5788C51.3284 66.6468 48.0589 66.6167 43.4097 64.3941C38.7601 62.173 9.34171 50.2878 4.04249 47.7558C-1.25673 45.2234 -1.36767 43.4796 3.8378 41.4406C9.04327 39.4027 38.3007 27.9234 44.4843 25.7054C50.6671 23.4874 52.812 23.407 58.0737 25.3347C63.3359 27.2621 90.8155 38.1992 96.0151 40.1042C101.217 42.0105 101.416 43.5808 96.08 46.3621" fill="#C6302B"/>
<path d="M96.082 39.4488C90.7453 42.2301 63.1 53.5973 57.2145 56.6668C51.3289 59.7348 48.0594 59.7047 43.4098 57.482C38.7602 55.2605 9.34102 43.3754 4.04141 40.8433C1.39297 39.5765 0 38.509 0 37.5004V27.391C0 27.391 38.3008 19.0538 44.484 16.8359C50.6668 14.6171 52.8121 14.5374 58.0738 16.4648C63.3367 18.3925 94.8 24.0679 100 25.973L99.9977 35.9386C99.9984 36.9367 98.7984 38.0328 96.082 39.4488Z" fill="#912626"/>
<path d="M96.08 29.4008C90.7437 32.182 63.0992 43.5492 57.2136 46.6172C51.3285 49.6852 48.0589 49.6551 43.4097 47.4336C38.7605 45.211 9.34176 33.3266 4.04293 30.7941C-1.25668 28.2621 -1.36723 26.518 3.83785 24.4793C9.04332 22.441 38.3007 10.9633 44.4843 8.74452C50.6671 6.52616 52.8121 6.44648 58.0738 8.37421C63.3359 10.3019 90.8156 21.2391 96.0152 23.1441C101.217 25.0488 101.416 26.6195 96.08 29.4008" fill="#C6302B"/>
<path d="M62.22 19.5675L53.6223 20.4601L51.6977 25.0913L48.5891 19.9234L38.6613 19.0312L46.0692 16.3597L43.8465 12.2589L50.7821 14.9714L57.3203 12.8308L55.5532 17.071L62.22 19.5675V19.5675ZM51.1844 42.0354L35.1387 35.3804L58.1309 31.8511L51.1844 42.0354V42.0354ZM28.9383 22.1417C35.7254 22.1417 41.2273 24.2745 41.2273 26.905C41.2273 29.5362 35.7254 31.6686 28.9383 31.6686C22.1511 31.6686 16.6492 29.5358 16.6492 26.905C16.6492 24.2745 22.1511 22.1417 28.9383 22.1417Z" fill="white"/>
<path d="M72.3809 20.8335L85.9887 26.2109L72.3926 31.5832L72.3809 20.8331" fill="#621B1C"/>
<path d="M57.3262 26.7887L72.3809 20.8336L72.3926 31.5833L70.9164 32.1606L57.3262 26.7887Z" fill="#9A2928"/>
</svg>
