<svg width="100" height="100" viewBox="0 0 100 100" fill="none" xmlns="http://www.w3.org/2000/svg">
<path d="M0.000244141 60.6202H4.41902V53.6975H8.13082L11.6069 60.6202H16.497L12.4318 52.6664C14.5822 51.6354 15.9667 49.5144 15.9667 46.8631C15.9667 42.68 12.9325 39.9993 8.39592 39.9993H0.000244141V60.6202ZM8.04241 43.6816C10.134 43.6816 11.4596 44.9189 11.4596 46.8631C11.4596 48.7779 10.134 50.0152 8.04241 50.0152H4.41902V43.6816H8.04241ZM25.2825 60.797C29.3184 60.797 31.9402 58.4403 32.4115 55.4945H28.3167C27.9633 56.9085 26.7849 57.6449 25.1058 57.6449C23.0143 57.6449 21.6297 56.3488 21.5413 54.1983V53.9921H32.5293C32.6177 53.5207 32.6472 53.0199 32.6472 52.578C32.5883 48.1298 29.5246 45.3018 24.9879 45.3018C20.3041 45.3018 17.2109 48.3655 17.2109 53.0789C17.2109 57.7627 20.2451 60.797 25.2825 60.797ZM21.6297 51.2819C21.8654 49.4849 23.2204 48.3949 25.0174 48.3949C26.9028 48.3949 28.1695 49.426 28.4641 51.2819H21.6297ZM34.095 55.5828C34.2718 58.8233 37.1293 60.797 41.3418 60.797C45.4071 60.797 48.2351 58.8822 48.2351 55.8774C48.2351 52.4602 45.3482 51.6648 41.8721 51.3113C39.6921 51.0462 38.396 50.9284 38.396 49.7795C38.396 48.8074 39.4564 48.2182 41.0767 48.2182C42.7558 48.2182 43.9047 48.9546 44.0226 50.1624H47.9994C47.7932 47.0693 44.9947 45.2724 40.9294 45.2724C37.0408 45.2429 34.4191 47.2166 34.4191 50.2213C34.4191 53.344 37.1587 54.1393 40.6937 54.5518C43.1388 54.8758 44.1698 54.9642 44.1698 56.2014C44.1698 57.262 43.1093 57.8217 41.3713 57.8217C39.3386 57.8217 38.1897 56.9085 38.0425 55.5828H34.095ZM57.9056 60.797C61.9414 60.797 64.5632 58.4403 65.0345 55.4945H60.9398C60.5863 56.9085 59.4079 57.6449 57.7288 57.6449C55.6372 57.6449 54.2527 56.3488 54.1643 54.1983V53.9921H65.1524C65.2407 53.5207 65.2702 53.0199 65.2702 52.578C65.2113 48.1298 62.1476 45.3018 57.611 45.3018C52.9271 45.3018 49.8339 48.3655 49.8339 53.0789C49.8339 57.7627 52.8682 60.797 57.9056 60.797ZM54.2527 51.2819C54.4883 49.4849 55.8435 48.3949 57.6404 48.3949C59.5258 48.3949 60.7925 49.426 61.087 51.2819H54.2527ZM76.2303 45.3018C73.9034 45.3018 72.5185 46.1856 71.5467 47.3639L71.1634 45.4785H67.5401V60.6202H71.6935V52.8726C71.6935 50.2508 72.931 48.719 75.0811 48.719C77.1729 48.719 78.1453 50.0741 78.1453 52.6369V60.6202H82.2989V52.2246C82.2989 47.0399 79.5004 45.3018 76.2303 45.3018ZM95.8467 47.3639C94.8742 46.1267 93.3717 45.3018 91.2807 45.3018C87.2447 45.3018 84.2695 48.336 84.2695 53.0199C84.2695 57.8217 87.2447 60.797 91.3099 60.797C93.49 60.797 94.9626 59.8248 95.9643 58.5287L96.3768 60.6202H100V39.9993H95.8467V47.3639ZM92.2232 57.4092C89.9548 57.4092 88.5114 55.6417 88.5114 53.0494C88.5114 50.457 89.9548 48.6895 92.2232 48.6895C94.4917 48.6895 95.9051 50.4865 95.9051 53.0789C95.9051 55.6417 94.4917 57.4092 92.2232 57.4092Z" fill="black"/>
</svg>
