<svg width="100" height="100" viewBox="0 0 100 100" fill="none" xmlns="http://www.w3.org/2000/svg">
<path d="M13.1032 92.1491L10.0032 9.59932C9.95642 8.28821 10.4237 7.01071 11.3055 6.03927C12.1873 5.06784 13.4137 4.47936 14.7232 4.39933L84.923 0.00934544C85.6089 -0.0344222 86.2965 0.0629767 86.9432 0.29552C87.59 0.528062 88.1822 0.890805 88.6831 1.36132C89.1841 1.83183 89.5832 2.40011 89.8558 3.03102C90.1284 3.66193 90.2687 4.34205 90.268 5.02933V94.9741C90.2673 95.6532 90.1292 96.3251 89.8618 96.9493C89.5945 97.5736 89.2035 98.1372 88.7125 98.6063C88.2215 99.0754 87.6406 99.4401 87.0047 99.6787C86.3689 99.9172 85.6914 100.024 85.013 99.9941L17.9032 96.9791C16.6424 96.9223 15.4491 96.3936 14.56 95.498C13.6708 94.6024 13.1508 93.4103 13.1032 92.1491Z" fill="#FF4785"/>
<path fill-rule="evenodd" clip-rule="evenodd" d="M79.4035 0.35437L69.7436 0.954369L69.2736 12.2893C69.2678 12.4312 69.3024 12.5717 69.3733 12.6946C69.4443 12.8176 69.5486 12.9179 69.6743 12.9839C69.8 13.0498 69.9418 13.0788 70.0833 13.0674C70.2248 13.056 70.3601 13.0046 70.4736 12.9193L74.8735 9.57935L78.5935 12.5093C78.7058 12.5982 78.8413 12.6531 78.9838 12.6675C79.1263 12.6819 79.2699 12.6551 79.3977 12.5904C79.5255 12.5257 79.6321 12.4258 79.7049 12.3025C79.7777 12.1791 79.8137 12.0375 79.8085 11.8943L79.4035 0.35437ZM71.8836 38.3043C70.1186 39.6793 56.9386 40.6143 56.9386 38.6593C57.2186 31.1943 53.8786 30.8693 52.0186 30.8693C50.2586 30.8693 47.2886 31.3993 47.2886 35.3993C47.2886 39.4743 51.6286 41.7743 56.7236 44.4743C63.9586 48.3093 72.7235 52.9542 72.7235 64.6342C72.7235 75.8342 63.6236 82.0142 52.0236 82.0142C40.0486 82.0142 29.5837 77.1692 30.7636 60.3742C31.2286 58.4042 46.4536 58.8742 46.4536 60.3742C46.2636 67.3042 47.8436 69.3442 51.8336 69.3442C54.8986 69.3442 56.2886 67.6542 56.2886 64.8142C56.2886 60.5092 51.7686 57.9692 46.5636 55.0492C39.5186 51.0942 31.2286 46.4393 31.2286 35.7543C31.2286 25.0943 38.5586 17.9843 51.6486 17.9843C64.7386 17.9843 71.8836 24.9843 71.8836 38.3043Z" fill="white"/>
</svg>
