<svg width="100" height="100" viewBox="0 0 100 100" fill="none" xmlns="http://www.w3.org/2000/svg">
<path d="M75.0449 31.6587L51.1384 66.2242C50.885 66.5907 50.5184 66.8653 50.0944 67.0062C49.6704 67.1471 49.212 67.1458 48.7888 67.0042C48.3656 66.862 48.0008 66.5861 47.7495 66.219C47.4983 65.8511 47.3744 65.4119 47.3968 64.968L48.3536 45.8842L32.9074 42.6084C32.5773 42.5385 32.2698 42.3885 32.012 42.1719C31.7542 41.9553 31.5541 41.6786 31.4294 41.3665C31.3048 41.0543 31.2595 40.7162 31.2975 40.3822C31.3354 40.0483 31.4555 39.7286 31.6471 39.4517L55.5538 4.886C55.8073 4.51931 56.1739 4.24484 56.5979 4.10413C57.022 3.96343 57.4804 3.96415 57.9037 4.10632C58.3269 4.24841 58.6918 4.52414 58.9429 4.89169C59.1941 5.25917 59.318 5.69836 59.2955 6.14265L58.3388 25.2266L73.7847 28.5022C74.1148 28.5721 74.4224 28.722 74.6804 28.9386C74.9384 29.1553 75.1382 29.4319 75.2626 29.7441C75.3876 30.0563 75.4326 30.3943 75.3949 30.7283C75.3572 31.0623 75.2368 31.3817 75.0449 31.6587Z" fill="#FCC72B"/>
<path d="M50.0094 95.2247C49.3736 95.2254 48.7439 95.101 48.1564 94.8575C47.569 94.6141 47.0354 94.2569 46.5864 93.807L23.9974 71.2196C23.0938 70.3113 22.5872 69.0815 22.5889 67.8002C22.5906 66.5188 23.1004 65.2896 24.0065 64.384C24.9126 63.4777 26.1412 62.9676 27.4226 62.9657C28.7042 62.9643 29.9341 63.4704 30.8427 64.3741L50.0094 83.5387L91.7644 41.7857C92.6746 40.8902 93.9018 40.3906 95.1786 40.3958C96.456 40.401 97.6792 40.9105 98.5815 41.8135C99.4845 42.7165 99.9945 43.9396 99.9998 45.2165C100.004 46.4935 99.505 47.7208 98.6093 48.631L53.4316 93.807C52.9827 94.2575 52.4492 94.6141 51.8619 94.8575C51.2747 95.101 50.6451 95.2254 50.0094 95.2247Z" fill="#729B1B"/>
<path d="M49.9901 95.2247C50.626 95.2254 51.2557 95.101 51.8431 94.8575C52.4306 94.6141 52.9641 94.2569 53.4131 93.807L76.0021 71.2196C76.9058 70.3113 77.4125 69.0815 77.4105 67.8002C77.4092 66.5188 76.8992 65.2896 75.9929 64.384C75.0866 63.4777 73.8581 62.9676 72.5767 62.9657C71.2953 62.9643 70.0655 63.4704 69.1566 64.3741L49.9901 83.5387L8.23524 41.7857C7.32497 40.8902 6.09769 40.3906 4.8208 40.3958C3.54384 40.401 2.32067 40.9105 1.41775 41.8135C0.514806 42.7165 0.00523984 43.9396 4.01847e-05 45.2165C-0.00515947 46.4935 0.494431 47.7208 1.38999 48.631L46.5679 93.807C47.0168 94.2575 47.5503 94.6141 48.1376 94.8575C48.7249 95.101 49.3544 95.2254 49.9901 95.2247Z" fill="#729B1B" fill-opacity="0.5"/>
</svg>
