<svg width="100" height="100" viewBox="0 0 100 100" fill="none" xmlns="http://www.w3.org/2000/svg">
<path d="M50.1916 0L5.99996 25V75L50.1916 100L94.3833 75V25L50.1916 0Z" fill="white"/>
<path d="M13.8916 73.2749L48.7333 92.9833V77.6333L27.0249 65.6916L13.8916 73.2749ZM11.5083 71.1166V29.8999L24.2583 37.2583V63.7499L11.5083 71.1166ZM86.6333 73.2749L51.7916 92.9833V77.6333L73.4999 65.6916L86.6333 73.2749V73.2749ZM89.0166 71.1166V29.8999L76.2666 37.2583V63.7499L89.0166 71.1166V71.1166ZM87.5249 27.2333L51.7916 7.0166V21.8583L74.6833 34.4499L74.8583 34.5499L87.5249 27.2333V27.2333ZM12.9999 27.2333L48.7333 7.0166V21.8583L25.8416 34.4499L25.6666 34.5499L12.9999 27.2333V27.2333Z" fill="#8ED6FB"/>
<path d="M51.7918 74.1416L73.2085 62.3666V39.0333L51.7918 51.4V74.1416ZM48.7335 74.1416L27.3168 62.3666V39.0333L48.7335 51.4V74.1416ZM71.7585 36.3333L50.2585 24.5083L28.7585 36.3333L50.2585 48.75L71.7585 36.3333" fill="#1C78C0"/>
</svg>
